<?xml version="1.0" encoding="UTF-8"?>
<svg version="1.1" xmlns="http://www.w3.org/2000/svg" width="799" height="799">
<path d="M0 0 C25.08 0 50.16 0 76 0 C76 38.58444793 76 38.58444793 74.8125 51.4375 C74.74753326 52.18662659 74.68256653 52.93575317 74.6156311 53.70758057 C72.67165558 76.0506645 69.22506375 98.15848154 65.0625 120.1875 C64.8461792 121.34233887 64.6298584 122.49717773 64.40698242 123.68701172 C62.12265376 135.30668993 59.00746597 146.47138045 56 158 C127.28 158 198.56 158 272 158 C272 236.77130194 266.91763844 310.19236874 242 385 C241.64470215 386.08603516 241.2894043 387.17207031 240.92333984 388.29101562 C231.77671419 416.17839553 220.12999787 442.79913174 207 469 C206.4519873 470.09860352 205.90397461 471.19720703 205.33935547 472.32910156 C184.83929113 513.23064262 158.77900432 551.30509655 129 586 C128.33226562 586.78117188 127.66453125 587.56234375 126.9765625 588.3671875 C125.65364875 589.9136923 124.3274009 591.4573449 123 593 C124.60582695 597.00622404 127.41926274 599.68187044 130.43914795 602.65274048 C131.28065647 603.49257888 131.28065647 603.49257888 132.13916516 604.34938371 C134.0213523 606.22549598 135.91058038 608.09435518 137.79980469 609.96337891 C139.15041072 611.30687257 140.50054786 612.65083776 141.85025024 613.99523926 C144.75913985 616.89102163 147.67100667 619.78376535 150.5851059 622.67430496 C155.19710524 627.24971696 159.80040255 631.83381605 164.40216064 636.41952515 C177.4898342 649.45890193 190.58911039 662.48658527 203.69726562 675.50537109 C210.93567045 682.69457896 218.16679137 689.89103471 225.39026189 697.09524858 C229.95825797 701.65019729 234.53510146 706.19600144 239.11879683 710.73514867 C241.97713121 713.56992092 244.82696837 716.41311942 247.67454147 719.25869751 C248.99079017 720.57067294 250.31045612 721.87923087 251.6338768 723.18397141 C262.50746641 733.91006161 271.83640411 744.52175655 272.3125 760.625 C271.82028191 771.72944003 267.97671186 781.60583065 259.8125 789.375 C253.66381644 794.43312313 246.05423101 798.47472406 238 799 C237.02353516 799.07541016 237.02353516 799.07541016 236.02734375 799.15234375 C225.01637454 799.63783622 214.82112983 795.8214367 206.45094442 788.67797136 C202.16391379 784.75260543 198.0985752 780.59998146 194.01318359 776.46728516 C192.63327583 775.08624745 191.2524834 773.70609321 189.87088013 772.32675171 C186.14357543 768.60058935 182.42868787 764.86227011 178.71598768 761.12156343 C174.82613218 757.20661408 170.92486044 753.30307425 167.02481079 749.39828491 C159.65056419 742.01163198 152.28656903 734.61484685 144.92624629 727.21432245 C136.54233663 718.78562217 128.14699497 710.36834804 119.7506969 701.95199132 C102.48775816 684.64730135 85.23914988 667.32838657 68 650 C65.25230563 651.33320056 63.06225249 652.64570021 60.78515625 654.6875 C60.18864258 655.21593506 59.59212891 655.74437012 58.97753906 656.28881836 C58.34557617 656.8535083 57.71361328 657.41819824 57.0625 658 C50.83183539 663.4755466 44.48013271 668.67754057 37.82861328 673.63525391 C36.54004339 674.59695026 35.25486645 675.56320111 33.97216797 676.53271484 C15.07774706 690.81333222 -4.61326292 703.94780125 -25 716 C-25.74588379 716.44698242 -26.49176758 716.89396484 -27.26025391 717.35449219 C-62.55372532 738.44892873 -100.12247969 754.78630607 -139 768 C-140.4845166 768.51506104 -140.4845166 768.51506104 -141.99902344 769.04052734 C-215.90389427 794.59234611 -291.16186306 799 -369 799 C-369 727.72 -369 656.44 -369 583 C-378.24 585.31 -387.48 587.62 -397 590 C-401.94296536 591.10475869 -406.84346393 592.17984274 -411.8125 593.125 C-413.0612793 593.36379883 -414.31005859 593.60259766 -415.59667969 593.84863281 C-452.5941718 600.7466731 -489.32579896 603 -527 603 C-527 577.92 -527 552.84 -527 527 C-520.9775 526.7525 -514.955 526.505 -508.75 526.25 C-461.41713549 524.04117081 -415.42228289 516.62668487 -370 503 C-369.505 332.225 -369.505 332.225 -369 158 C-255.15 157.67 -141.3 157.34 -24 157 C-9.47108793 103.24302534 -2.12107826 55.14803481 0 0 Z M-293 234 C-293 312.54 -293 391.08 -293 472 C-286.94057767 469.98019256 -281.82880889 467.41531283 -276.25 464.375 C-275.20448975 463.80595947 -274.15897949 463.23691895 -273.08178711 462.65063477 C-254.69926158 452.52939715 -236.88036664 441.47198251 -220 429 C-219.00830811 428.27417725 -219.00830811 428.27417725 -217.99658203 427.53369141 C-207.732333 420.01317891 -197.78148424 412.13703174 -188 404 C-187.40477539 403.50532227 -186.80955078 403.01064453 -186.19628906 402.50097656 C-173.193631 391.64488113 -160.93907407 380.00888234 -148.9375 368.0625 C-148.24744873 367.37712158 -147.55739746 366.69174316 -146.84643555 365.9855957 C-142.91879552 362.04553098 -139.17699198 357.99636479 -135.54321289 353.78393555 C-133.65788436 351.60451843 -131.70514783 349.49179391 -129.75 347.375 C-125.20197235 342.33446174 -121.03307905 337.05121534 -116.87890625 331.6875 C-114.98223768 329.24218693 -113.05452725 326.82848895 -111.08984375 324.4375 C-103.10170401 314.69551158 -95.9611789 304.49562023 -89 294 C-88.5270752 293.29117676 -88.05415039 292.58235352 -87.56689453 291.85205078 C-77.3268754 276.46475899 -67.83542955 260.58584951 -59.1875 244.25 C-58.76073975 243.44578613 -58.33397949 242.64157227 -57.89428711 241.81298828 C-55.766889 238.1041559 -55.766889 238.1041559 -55 234 C-133.54 234 -212.08 234 -293 234 Z M29 234 C25.37 242.25 21.74 250.5 18 259 C15.77133799 263.7224703 13.53885542 268.40521019 11.1875 273.0625 C10.60621338 274.2182251 10.02492676 275.3739502 9.42602539 276.56469727 C3.45431026 288.34057775 -3.15452941 299.71490862 -10 311 C-10.56106445 311.9295752 -11.12212891 312.85915039 -11.70019531 313.81689453 C-26.02296623 337.4872893 -41.9200086 359.95691513 -59.57177734 381.26757812 C-61.6126249 383.74310877 -63.61427136 386.24998215 -65.625 388.75 C-69.6473425 393.66701795 -73.89839072 398.3338579 -78.2265625 402.98046875 C-80.27762435 405.188758 -82.25712161 407.44827341 -84.22436523 409.73144531 C-87.73304481 413.74691571 -91.40784785 417.55305045 -95.18359375 421.31640625 C-95.84279312 421.97656235 -96.50199249 422.63671844 -97.1811676 423.31687927 C-98.56396835 424.70035506 -99.94801076 426.08259083 -101.33325195 427.46362305 C-103.43230343 429.55731669 -105.5259594 431.65629874 -107.61914062 433.75585938 C-108.97363786 435.10969571 -110.32844531 436.46322175 -111.68359375 437.81640625 C-112.29843124 438.43326797 -112.91326874 439.0501297 -113.54673767 439.6856842 C-117.87015959 443.98629546 -122.37452971 448.02768748 -127 452 C-128.09411653 452.95009891 -129.18793226 453.9005445 -130.28125 454.8515625 C-170.54450575 489.62522014 -214.73546285 518.24000867 -262.1875 542.25 C-263.08799072 542.70914795 -263.98848145 543.1682959 -264.91625977 543.64135742 C-274.12741155 548.24162123 -283.44146987 551.97535573 -293 556 C-293 610.45 -293 664.9 -293 721 C-281.32495674 720.35138649 -270.01660456 719.57368679 -258.5 717.875 C-257.76142761 717.7677359 -257.02285522 717.6604718 -256.26190186 717.54995728 C-168.00526046 704.63798553 -84.85446807 669.95983408 13 594 C11.70453751 592.71453026 11.70453751 592.71453026 10.38290405 591.40309143 C2.22410288 583.3052434 -5.92666021 575.19938062 -14.06972694 567.08570957 C-18.25588466 562.91517274 -22.44477217 558.74745834 -26.64013672 554.58618164 C-30.69273588 550.56630316 -34.73785071 546.53902918 -38.77799606 542.50663567 C-40.31664011 540.97351232 -41.85791167 539.44302105 -43.40190506 537.91528511 C-45.57275161 535.76638122 -47.7338594 533.60810043 -49.89306641 531.44750977 C-50.52604645 530.82531555 -51.15902649 530.20312134 -51.81118774 529.56207275 C-60.91742084 520.39296022 -65.99255945 511.17180516 -66.4375 498.125 C-66.15070647 487.11929823 -62.86870116 477.83759958 -55 470 C-46.23740715 462.57296963 -36.86398486 460.35265768 -25.5234375 460.66015625 C-7.48312733 462.40018617 3.60225892 476.3173155 15.6328125 488.4375 C17.12023686 489.9286615 18.60810858 491.41937688 20.09640503 492.90966797 C23.98383186 496.80467608 27.86521091 500.70565552 31.74530029 504.60797119 C35.71714312 508.60039194 39.69476056 512.5870506 43.671875 516.57421875 C51.45353306 524.37722942 59.22880506 532.18656978 67 540 C78.34892047 528.73007981 87.6894118 515.95583065 97 503 C97.59248535 502.18047852 98.1849707 501.36095703 98.79541016 500.51660156 C106.96974584 489.18110573 114.52607642 477.61096713 121.53662109 465.52099609 C122.99827547 463.00297089 124.47690103 460.49548041 125.95703125 457.98828125 C160.41168345 399.18409148 182.20847628 333.40035252 191.375 265.9375 C191.60848145 264.22046875 191.60848145 264.22046875 191.84667969 262.46875 C193.04920289 252.94762808 193.46394482 243.64899322 194 234 C139.55 234 85.1 234 29 234 Z " fill="#FFFFFF" transform="translate(527,0)"/>
</svg>
