<?xml version="1.0" encoding="UTF-8"?>
<svg version="1.1" xmlns="http://www.w3.org/2000/svg" width="255" height="120">
<path d="M0 0 C78.54 0 157.08 0 238 0 C238 8.58 238 17.16 238 26 C159.46 26 80.92 26 0 26 C0 17.42 0 8.84 0 0 Z " fill="#B3060C" transform="translate(8,84)"/>
<path d="M0 0 C78.54 0 157.08 0 238 0 C238 8.58 238 17.16 238 26 C159.46 26 80.92 26 0 26 C0 17.42 0 8.84 0 0 Z M1 1 C1 8.92 1 16.84 1 25 C40.93 25 80.86 25 122 25 C122 22.36 122 19.72 122 17 C122.495 20.465 122.495 20.465 123 24 C123.99 24 124.98 24 126 24 C126.33 22.68 126.66 21.36 127 20 C127.78375 19.855625 128.5675 19.71125 129.375 19.5625 C131.96421018 19.12201075 131.96421018 19.12201075 134 18 C134.51046875 18.49113281 135.0209375 18.98226562 135.546875 19.48828125 C138.89448982 21.55122223 141.35209972 21.29577501 145.25 21.1875 C146.51328125 21.16042969 147.7765625 21.13335937 149.078125 21.10546875 C150.52445312 21.05326172 150.52445312 21.05326172 152 21 C152.33 17.37 152.66 13.74 153 10 C154.65 9.67 156.3 9.34 158 9 C158 12.63 158 16.26 158 20 C159.32 20 160.64 20 162 20 C162 19.34 162 18.68 162 18 C161.34 18 160.68 18 160 18 C160 15.03 160 12.06 160 9 C160.66 9 161.32 9 162 9 C162 8.34 162 7.68 162 7 C161.34 7 160.68 7 160 7 C160 6.01 160 5.02 160 4 C159.34 4 158.68 4 158 4 C158 4.99 158 5.98 158 7 C155.03 7 152.06 7 149 7 C148.67 8.32 148.34 9.64 148 11 C147.505 10.360625 147.01 9.72125 146.5 9.0625 C143.01193613 6.18484731 140.46538959 6.29769264 136 6 C136 6.99 136 7.98 136 9 C135.01 9 134.02 9 133 9 C133 8.01 133 7.02 133 6 C127.72 6 122.44 6 117 6 C117.33 5.01 117.66 4.02 118 3 C117.34 3 116.68 3 116 3 C115.67 3.66 115.34 4.32 115 5 C114.01 5.33 113.02 5.66 112 6 C111.505 4.515 111.505 4.515 111 3 C106.38 3 101.76 3 97 3 C97 8.61 97 14.22 97 20 C96.67 20 96.34 20 96 20 C96 13.73 96 7.46 96 1 C67.29 1 38.58 1 9 1 C9 1.99 9 2.98 9 4 C8.4121875 3.2575 8.4121875 3.2575 7.8125 2.5 C5.75011995 0.46869357 5.75011995 0.46869357 1 1 Z " fill="#AF060C" transform="translate(8,84)"/>
<path d="M0 0 C1.66385354 0.34710269 3.32961485 0.68583073 5 1 C5 0.01 5 -0.98 5 -2 C5.66 -2 6.32 -2 7 -2 C7.62422779 4.68815484 8.12920865 11.28115045 8 18 C6.24635955 15.72026741 4.65167769 13.4426843 3.125 11 C-0.16691204 6.35259477 -3.63995124 3.81250204 -9 2 C-16.82348905 1.07197233 -22.26783985 2.01057177 -29 6 C-29.66 6 -30.32 6 -31 6 C-31.2475 6.515625 -31.495 7.03125 -31.75 7.5625 C-33 10 -33 10 -35 13.125 C-40.2411075 22.40980842 -39.94610212 33.83217835 -37.2109375 43.90625 C-34.15513591 52.1544299 -29.78778331 57.37431025 -21.75390625 61.0859375 C-14.12290302 63.61878113 -8.04937811 62.26826901 -1 59 C-0.94202435 55.06256167 -0.90641211 51.12523281 -0.875 47.1875 C-0.85824219 46.06794922 -0.84148437 44.94839844 -0.82421875 43.79492188 C-0.81777344 42.72177734 -0.81132812 41.64863281 -0.8046875 40.54296875 C-0.79421387 39.55321045 -0.78374023 38.56345215 -0.77294922 37.54370117 C-0.81732596 34.7556048 -0.81732596 34.7556048 -3 32 C-6.05429073 30.78715124 -6.05429073 30.78715124 -9 30 C-9 29.67 -9 29.34 -9 29 C-0.75 29 7.5 29 16 29 C15.01 29.66 14.02 30.32 13 31 C10.51118295 32.86046507 10.04807524 33.68654725 9.56762695 36.8190918 C9.54144287 37.93453369 9.51525879 39.04997559 9.48828125 40.19921875 C9.45283203 41.40771484 9.41738281 42.61621094 9.38085938 43.86132812 C9.35830078 45.12396484 9.33574219 46.38660156 9.3125 47.6875 C9.27833984 48.96173828 9.24417969 50.23597656 9.20898438 51.54882812 C9.12639216 54.69913103 9.05727665 57.84915157 9 61 C7.41800369 61.64910154 5.83434276 62.29414694 4.25 62.9375 C2.92742187 63.47697266 2.92742187 63.47697266 1.578125 64.02734375 C-7.8457379 67.58271021 -21.33954344 67.61036689 -30.83203125 64.09765625 C-40.17902395 59.3652149 -46.38964552 52.06626104 -49.9375 42.25 C-52.14984403 33.76934789 -51.06861351 24.4522417 -47.48828125 16.484375 C-43.00524372 9.00087928 -36.64184729 1.431435 -28 -1 C-17.93637855 -3.49698878 -9.91664887 -2.67230257 0 0 Z " fill="#9B1114" transform="translate(230,11)"/>
<path d="M0 0 C14.88374632 -1.91572972 14.88374632 -1.91572972 19.78710938 1.09863281 C23.02607255 4.06049838 25.44778715 7.6236335 27.84570312 11.27783203 C29.50022362 13.74631502 31.39661499 15.98100479 33.3125 18.25 C34.02535156 19.12527344 34.73820312 20.00054688 35.47265625 20.90234375 C38.71982743 24.88226144 41.9843676 28.84772597 45.25 32.8125 C45.84079346 33.53018555 46.43158691 34.24787109 47.0402832 34.98730469 C47.609646 35.67856445 48.17900879 36.36982422 48.765625 37.08203125 C49.31154297 37.7467041 49.85746094 38.41137695 50.41992188 39.09619141 C51.44586499 40.33233239 52.48308071 41.55923515 53.53320312 42.77490234 C57 46.79877593 57 46.79877593 57 49 C57.66 49 58.32 49 59 49 C58.88183315 42.93093549 58.75759036 36.86203752 58.62768555 30.79321289 C58.58434197 28.72814324 58.54266648 26.66303788 58.50268555 24.59790039 C58.44496917 21.63156365 58.38127849 18.66540655 58.31640625 15.69921875 C58.29969376 14.7741301 58.28298126 13.84904144 58.26576233 12.8959198 C58.2358445 11.60492119 58.2358445 11.60492119 58.20532227 10.2878418 C58.18200584 9.15199898 58.18200584 9.15199898 58.15821838 7.99320984 C58.06367677 5.79075185 58.06367677 5.79075185 57 3 C55.12612784 2.19787372 55.12612784 2.19787372 52.9375 1.8125 C52.20402344 1.65394531 51.47054687 1.49539063 50.71484375 1.33203125 C50.14894531 1.22246094 49.58304688 1.11289063 49 1 C49 0.67 49 0.34 49 0 C56.59 0 64.18 0 72 0 C72 0.33 72 0.66 72 1 C70.865625 1.28875 69.73125 1.5775 68.5625 1.875 C66.7990625 2.431875 66.7990625 2.431875 65 3 C63.64433895 5.7113221 63.83768915 7.88307998 63.79467773 10.91845703 C63.77473251 12.15959259 63.75478729 13.40072815 63.73423767 14.67947388 C63.7172534 16.0389188 63.70037459 17.39836505 63.68359375 18.7578125 C63.66302419 20.14501567 63.64202772 21.53221257 63.62062073 22.91940308 C63.56540019 26.57227505 63.51599089 30.22520359 63.46777344 33.87817383 C63.41755825 37.60503174 63.36187229 41.33180741 63.30664062 45.05859375 C63.19905929 52.37232621 63.09761432 59.68612701 63 67 C59.28713351 65.28677801 57.47568214 63.42783346 54.9375 60.1875 C54.15246094 59.20136719 53.36742187 58.21523437 52.55859375 57.19921875 C52.14335449 56.67634277 51.72811523 56.1534668 51.30029297 55.61474609 C49.08622891 52.86524934 46.79066232 50.18570061 44.5 47.5 C40.38815867 42.66316677 36.34850961 37.77380077 32.34375 32.84765625 C29.12472801 28.93654453 25.84081057 25.08141592 22.54101562 21.23828125 C19.1077077 17.2154154 19.1077077 17.2154154 18 15 C17.97470295 21.51447727 17.95715556 28.02894193 17.94506836 34.54345703 C17.94003091 36.76090976 17.93320078 38.97835916 17.92456055 41.19580078 C17.91246928 44.37793805 17.9067659 47.56003151 17.90234375 50.7421875 C17.89718246 51.73805878 17.89202118 52.73393005 17.88670349 53.75997925 C17.88662796 54.68078278 17.88655243 55.6015863 17.88647461 56.55029297 C17.88314369 57.76940872 17.88314369 57.76940872 17.87974548 59.01315308 C17.87415342 61.07527359 17.87415342 61.07527359 19 63 C21.3140622 63.73075648 23.64828869 64.40138258 26 65 C26 65.33 26 65.66 26 66 C18.41 66 10.82 66 3 66 C3 65.67 3 65.34 3 65 C4.670625 64.5978125 4.670625 64.5978125 6.375 64.1875 C10.21840951 63.34190981 10.21840951 63.34190981 12 60 C12.32352229 57.62543568 12.32352229 57.62543568 12.30639648 54.94946289 C12.32238388 53.92152115 12.33837128 52.89357941 12.35484314 51.83448792 C12.36020584 50.72508347 12.36556854 49.61567902 12.37109375 48.47265625 C12.38012222 47.33219345 12.3891507 46.19173065 12.39845276 45.01670837 C12.41296826 42.60336946 12.42184521 40.18999107 12.42553711 37.77661133 C12.43744292 34.08022005 12.48662713 30.38549242 12.53710938 26.68945312 C12.54657214 24.34636233 12.55380787 22.00326126 12.55859375 19.66015625 C12.57812607 18.55277603 12.59765839 17.44539581 12.61778259 16.30445862 C12.72926783 10.24554069 12.72926783 10.24554069 9.59130859 5.32299805 C7.42578272 4.21738426 5.5454619 3.30481457 3.1875 2.75 C2.135625 2.5025 1.08375 2.255 0 2 C0 1.34 0 0.68 0 0 Z " fill="#B60A0D" transform="translate(8,10)"/>
<path d="M0 0 C6.27 0 12.54 0 19 0 C19 0.33 19 0.66 19 1 C14.545 1.495 14.545 1.495 10 2 C10 7.61 10 13.22 10 19 C11.32 18.67 12.64 18.34 14 18 C13.34 17.34 12.68 16.68 12 16 C11.43641026 9.80051282 11.43641026 9.80051282 13.2265625 7.2578125 C15.60791445 5.56883601 16.84592866 5.85949587 19.6875 6.3125 C20.49574219 6.43238281 21.30398437 6.55226563 22.13671875 6.67578125 C22.75160156 6.78277344 23.36648437 6.88976562 24 7 C23.67 5.02 23.34 3.04 23 1 C25.875 1.25 25.875 1.25 29 2 C30.375 4.0625 30.375 4.0625 31 6 C32.98 6 34.96 6 37 6 C37 5.01 37 4.02 37 3 C40.10632548 3.24898882 43.20924688 3.52794177 46.3125 3.8125 C47.63411133 3.91788086 47.63411133 3.91788086 48.98242188 4.02539062 C49.82998047 4.10595703 50.67753906 4.18652344 51.55078125 4.26953125 C52.33106689 4.33760986 53.11135254 4.40568848 53.9152832 4.47583008 C56.43523913 5.10943417 57.40963117 5.97303491 59 8 C59.3984375 10.15625 59.3984375 10.15625 59.375 12.5 C59.38660156 13.66015625 59.38660156 13.66015625 59.3984375 14.84375 C58.90578763 17.50985517 58.16918759 18.40723988 56 20 C52.8125 20.1875 52.8125 20.1875 50 20 C49.505 21.485 49.505 21.485 49 23 C48.01 22.67 47.02 22.34 46 22 C46.33 21.34 46.66 20.68 47 20 C46.01 20.33 45.02 20.66 44 21 C42.66474283 21.07973476 41.32587917 21.10771338 39.98828125 21.09765625 C38.85229492 21.09282227 38.85229492 21.09282227 37.69335938 21.08789062 C36.90767578 21.07951172 36.12199219 21.07113281 35.3125 21.0625 C34.51521484 21.05798828 33.71792969 21.05347656 32.89648438 21.04882812 C30.93095743 21.0370585 28.96546915 21.01912348 27 21 C27 21.66 27 22.32 27 23 C15.78 23 4.56 23 -7 23 C-7 19.7 -7 16.4 -7 13 C-6.01 13.495 -6.01 13.495 -5 14 C-4.67 10.04 -4.34 6.08 -4 2 C-2.68 2.33 -1.36 2.66 0 3 C0 2.01 0 1.02 0 0 Z " fill="#AE0D0F" transform="translate(17,85)"/>
<path d="M0 0 C1.14072968 0.00015106 2.28145935 0.00030212 3.45675659 0.00045776 C4.6725943 0.01078033 5.88843201 0.02110291 7.14111328 0.03173828 C8.39779816 0.03456818 9.65448303 0.03739807 10.94924927 0.04031372 C14.27343442 0.04958956 17.59734002 0.06752697 20.92144775 0.08972168 C24.32016599 0.11026266 27.71891322 0.119333 31.11767578 0.12939453 C37.7740124 0.15141702 44.43018086 0.1859277 51.08642578 0.22705078 C51.08642578 8.14705078 51.08642578 16.06705078 51.08642578 24.22705078 C48.30041355 25.15572152 46.47576489 25.39047296 43.58642578 25.41455078 C42.42626953 25.43582031 42.42626953 25.43582031 41.24267578 25.45751953 C39.08642578 25.22705078 39.08642578 25.22705078 36.08642578 23.22705078 C35.70247911 20.45442824 35.4830033 17.8838155 35.39892578 15.10205078 C35.36476562 14.34794922 35.33060547 13.59384766 35.29541016 12.81689453 C35.212883 10.95413878 35.14797867 9.09061752 35.08642578 7.22705078 C34.75642578 11.18705078 34.42642578 15.14705078 34.08642578 19.22705078 C27.25048828 19.42236328 27.25048828 19.42236328 25.08642578 19.22705078 C23.08642578 17.22705078 23.08642578 17.22705078 22.89111328 14.62548828 C22.91431641 13.62775391 22.93751953 12.63001953 22.96142578 11.60205078 C22.97947266 10.59916016 22.99751953 9.59626953 23.01611328 8.56298828 C23.03931641 7.79212891 23.06251953 7.02126953 23.08642578 6.22705078 C24.07642578 6.22705078 25.06642578 6.22705078 26.08642578 6.22705078 C25.00090212 4.91442507 25.00090212 4.91442507 22.36376953 5.12939453 C21.26162109 5.14099609 20.15947266 5.15259766 19.02392578 5.16455078 C17.91919922 5.17357422 16.81447266 5.18259766 15.67626953 5.19189453 C14.82162109 5.20349609 13.96697266 5.21509766 13.08642578 5.22705078 C14.03517578 5.49517578 14.98392578 5.76330078 15.96142578 6.03955078 C19.08642578 7.22705078 19.08642578 7.22705078 21.08642578 10.22705078 C20.63359559 16.67988097 20.63359559 16.67988097 18.08642578 19.22705078 C14.46142578 18.85205078 14.46142578 18.85205078 11.08642578 18.22705078 C9.92867518 14.75379898 10.01775926 11.86637631 10.08642578 8.22705078 C8.76642578 8.55705078 7.44642578 8.88705078 6.08642578 9.22705078 C5.75642578 12.52705078 5.42642578 15.82705078 5.08642578 19.22705078 C4.09642578 19.22705078 3.10642578 19.22705078 2.08642578 19.22705078 C1.75642578 15.26705078 1.42642578 11.30705078 1.08642578 7.22705078 C-0.23357422 7.22705078 -1.55357422 7.22705078 -2.91357422 7.22705078 C-3.38794922 6.71142578 -3.86232422 6.19580078 -4.35107422 5.66455078 C-4.86669922 5.19017578 -5.38232422 4.71580078 -5.91357422 4.22705078 C-8.50474735 4.22861303 -8.50474735 4.22861303 -10.91357422 5.22705078 C-13.29084654 8.13144067 -13.29084654 8.13144067 -12.66357422 11.85205078 C-12.41607422 12.96580078 -12.16857422 14.07955078 -11.91357422 15.22705078 C-9.20478087 16.58144746 -6.90424154 16.29206529 -3.91357422 16.22705078 C-3.25357422 14.90705078 -2.59357422 13.58705078 -1.91357422 12.22705078 C-3.89357422 12.22705078 -5.87357422 12.22705078 -7.91357422 12.22705078 C-7.91357422 11.56705078 -7.91357422 10.90705078 -7.91357422 10.22705078 C-5.27357422 10.22705078 -2.63357422 10.22705078 0.08642578 10.22705078 C0.08642578 12.53705078 0.08642578 14.84705078 0.08642578 17.22705078 C-3.56315287 19.56278112 -6.65267913 19.68357526 -10.91357422 19.22705078 C-13.27854861 17.35996573 -14.57388137 15.90643647 -15.91357422 13.22705078 C-16.32384439 9.53461924 -16.19746391 7.70747949 -14.28857422 4.47705078 C-10.13610601 0.54313353 -5.56521189 -0.02473428 0 0 Z " fill="#AD0B10" transform="translate(193.91357421875,84.77294921875)"/>
<path d="M0 0 C4.62 0 9.24 0 14 0 C14.33 0.99 14.66 1.98 15 3 C15.99 2.67 16.98 2.34 18 2 C18.33 1.34 18.66 0.68 19 0 C19.66 0.33 20.32 0.66 21 1 C20.67 1.66 20.34 2.32 20 3 C25.28 3 30.56 3 36 3 C36 3.99 36 4.98 36 6 C36.99 6 37.98 6 39 6 C39 5.01 39 4.02 39 3 C40.62752231 3.25523874 42.25203196 3.52974494 43.875 3.8125 C45.23238281 4.03873047 45.23238281 4.03873047 46.6171875 4.26953125 C49 5 49 5 51 8 C51.33 6.68 51.66 5.36 52 4 C54.97 4 57.94 4 61 4 C61 3.01 61 2.02 61 1 C61.66 1 62.32 1 63 1 C63 1.99 63 2.98 63 4 C63.66 4 64.32 4 65 4 C65 4.66 65 5.32 65 6 C64.34 6 63.68 6 63 6 C63 8.97 63 11.94 63 15 C63.66 15 64.32 15 65 15 C65 15.66 65 16.32 65 17 C63.68 17 62.36 17 61 17 C61 13.37 61 9.74 61 6 C59.35 6.33 57.7 6.66 56 7 C55.67 10.63 55.34 14.26 55 18 C52.77144426 18.0814222 50.54202345 18.13938079 48.3125 18.1875 C46.45044922 18.23970703 46.45044922 18.23970703 44.55078125 18.29296875 C40.81435679 17.9846829 38.99370517 17.18088273 36 15 C35.34 15.66 34.68 16.32 34 17 C32.68 17 31.36 17 30 17 C29.67 18.32 29.34 19.64 29 21 C28.01 21 27.02 21 26 21 C25.9175 20.38125 25.835 19.7625 25.75 19.125 C25.1875 16.85416667 25.1875 16.85416667 23.125 15.75 C20.90408309 14.83358994 20.90408309 14.83358994 18 15 C17.42765625 15.50144531 16.8553125 16.00289062 16.265625 16.51953125 C11.66692588 19.52454326 5.17439198 17.52702141 0 17 C0 11.39 0 5.78 0 0 Z " fill="#A70E17" transform="translate(105,87)"/>
<path d="M0 0 C4.20477214 3.61805975 6.33716873 6.66863789 7.5 12.125 C7.561875 13.176875 7.62375 14.22875 7.6875 15.3125 C6.6875 16.3125 6.6875 16.3125 3.82006836 16.42602539 C2.56846924 16.42078857 1.31687012 16.41555176 0.02734375 16.41015625 C-0.96935585 16.40803383 -0.96935585 16.40803383 -1.9861908 16.40586853 C-4.11583899 16.40025518 -6.24538339 16.38770054 -8.375 16.375 C-9.81575369 16.36998671 -11.25650903 16.36542351 -12.69726562 16.36132812 C-16.23571102 16.35028145 -19.77409539 16.33300792 -23.3125 16.3125 C-22.72566101 18.4044793 -22.12379141 20.49224605 -21.515625 22.578125 C-21.18208008 23.74118164 -20.84853516 24.90423828 -20.50488281 26.10253906 C-18.82831465 30.61595393 -16.6079247 33.17351819 -12.3125 35.3125 C-7.95219583 36.79740673 -4.93139258 36.48497826 -0.5 35.25 C3.17042142 33.01895953 4.18984852 31.27687157 5.6875 27.3125 C6.3475 27.6425 7.0075 27.9725 7.6875 28.3125 C5.08819437 35.57763997 1.74646339 40.7830183 -5.3125 44.3125 C-11.95758676 45.09559103 -17.17249448 44.80661447 -22.66015625 40.7890625 C-27.74774507 36.24270653 -29.65576928 30.93032492 -30.3125 24.3125 C-30.41536536 15.63752126 -29.24620459 8.35547416 -23.0625 2 C-15.29224103 -2.76811346 -8.41309125 -4.28591441 0 0 Z M-20.3125 4.3125 C-21.74682976 6.65958506 -22.47265298 8.64475066 -23.3125 11.3125 C-22.9825 11.9725 -22.6525 12.6325 -22.3125 13.3125 C-15.7125 13.3125 -9.1125 13.3125 -2.3125 13.3125 C-2.62770418 5.94605259 -2.62770418 5.94605259 -4.9375 2.875 C-10.7607906 -0.95611223 -15.26819219 -0.27323437 -20.3125 4.3125 Z " fill="#A70D10" transform="translate(115.3125,32.6875)"/>
<path d="M0 0 C6.6 0 13.2 0 20 0 C19.67 0.66 19.34 1.32 19 2 C18.34 2 17.68 2 17 2 C18.31551124 6.60428934 20.09196486 10.18320388 23 14 C23.66 14 24.32 14 25 14 C28.25494123 10.48141867 30.55946315 6.84590538 31 2 C30.01 2 29.02 2 28 2 C28.33 1.34 28.66 0.68 29 0 C33.29 0 37.58 0 42 0 C42 0.66 42 1.32 42 2 C41.11183594 2.37382813 40.22367188 2.74765625 39.30859375 3.1328125 C35.53233723 5.26392303 33.65285891 7.41831473 31.0625 10.875 C30.26972656 11.90367188 29.47695312 12.93234375 28.66015625 13.9921875 C26.79105409 16.79962409 26.79105409 16.79962409 27.015625 19.55078125 C28.20929915 22.52075623 29.7504198 24.76293348 31.6875 27.3125 C32.409375 28.26640625 33.13125 29.2203125 33.875 30.203125 C34.57625 31.12609375 35.2775 32.0490625 36 33 C36.556875 33.79921875 37.11375 34.5984375 37.6875 35.421875 C41.28968445 40.56553061 41.28968445 40.56553061 47 43 C47 43.66 47 44.32 47 45 C40.07 45 33.14 45 26 45 C26.99 44.01 27.98 43.02 29 42 C28.83296924 37.67898678 26.77977219 34.72220166 24.4375 31.1875 C23.47650391 29.72376953 23.47650391 29.72376953 22.49609375 28.23046875 C22.00238281 27.49441406 21.50867188 26.75835937 21 26 C18.20650743 28.67177176 15.86520488 31.36889309 13.6875 34.5625 C13.15511719 35.32691406 12.62273437 36.09132812 12.07421875 36.87890625 C11.71972656 37.57886719 11.36523438 38.27882812 11 39 C11.8509288 42.2981424 11.8509288 42.2981424 15 45 C10.38 45 5.76 45 1 45 C1 44.34 1 43.68 1 43 C1.69480469 42.46890625 2.38960937 41.9378125 3.10546875 41.390625 C6.86400914 38.2864054 9.45889125 34.67501228 12.3125 30.75 C12.86228516 30.00492188 13.41207031 29.25984375 13.97851562 28.4921875 C15.32496192 26.66570383 16.66519468 24.83499867 18 23 C11.29846011 10.05018924 11.29846011 10.05018924 0 2 C0 1.34 0 0.68 0 0 Z " fill="#B60A0B" transform="translate(127,31)"/>
<path d="M0 0 C55.44 0 110.88 0 168 0 C168 0.33 168 0.66 168 1 C148.53 1 129.06 1 109 1 C109 1.66 109 2.32 109 3 C105.04 3 101.08 3 97 3 C97 8.61 97 14.22 97 20 C100.96 20 104.92 20 109 20 C109 20.33 109 20.66 109 21 C106.85423363 21.02685938 104.70837355 21.04633088 102.5625 21.0625 C101.36753906 21.07410156 100.17257813 21.08570312 98.94140625 21.09765625 C96 21 96 21 95 20 C94.89995097 17.75183935 94.87033116 15.50038093 94.875 13.25 C94.87242188 12.01765625 94.86984375 10.7853125 94.8671875 9.515625 C95 6 95 6 96 1 C53.43 1.495 53.43 1.495 10 2 C9.67 2.99 9.34 3.98 9 5 C8.67 4.01 8.34 3.02 8 2 C5.69 1.67 3.38 1.34 1 1 C1 8.92 1 16.84 1 25 C40.93 25 80.86 25 122 25 C122 23.68 122 22.36 122 21 C121.34 20.67 120.68 20.34 120 20 C120.66 20 121.32 20 122 20 C121.505 18.02 121.505 18.02 121 16 C121.66 16.33 122.32 16.66 123 17 C123 19.31 123 21.62 123 24 C123.99 24 124.98 24 126 24 C126 22.35 126 20.7 126 19 C126.66 19.33 127.32 19.66 128 20 C127.505 22.475 127.505 22.475 127 25 C158.02 25 189.04 25 221 25 C220.67 23.35 220.34 21.7 220 20 C219.93347145 17.73004581 219.91456249 15.45831305 219.9375 13.1875 C219.94652344 12.02605469 219.95554688 10.86460938 219.96484375 9.66796875 C219.98224609 8.34732422 219.98224609 8.34732422 220 7 C220.99 7.495 220.99 7.495 222 8 C222.26006351 10.6686062 222.42139909 13.26275714 222.5 15.9375 C222.34451863 21.46983601 222.34451863 21.46983601 225 26 C150.75 26 76.5 26 0 26 C0 17.42 0 8.84 0 0 Z " fill="#8C0E14" transform="translate(8,84)"/>
<path d="M0 0 C0.33 5.94 0.66 11.88 1 18 C6.23459769 17.92164061 6.23459769 17.92164061 11.46875 17.81982422 C16.6386612 17.78129844 21.03147298 18.56590243 26 20 C26 20.66 26 21.32 26 22 C9.83 22 -6.34 22 -23 22 C-24.53266582 18.93466836 -24.10276471 15.73245728 -24.0625 12.375 C-24.05798828 11.66859375 -24.05347656 10.9621875 -24.04882812 10.234375 C-24.03703875 8.48954725 -24.01910324 6.744763 -24 5 C-22.02 5 -20.04 5 -18 5 C-17.67 3.68 -17.34 2.36 -17 1 C-16.01 1 -15.02 1 -14 1 C-13.67 3.31 -13.34 5.62 -13 8 C-11.35 6.68 -9.7 5.36 -8 4 C-9.32 4 -10.64 4 -12 4 C-11.67 3.01 -11.34 2.02 -11 1 C-9 0 -9 0 0 0 Z " fill="#C5050A" transform="translate(103,86)"/>
<path d="M0 0 C6.27 0 12.54 0 19 0 C19 0.33 19 0.66 19 1 C14.545 1.495 14.545 1.495 10 2 C10 7.61 10 13.22 10 19 C11.65 19 13.3 19 15 19 C15.33 19.33 15.66 19.66 16 20 C19.62059232 20.29356154 21.87703962 19.85064319 25 18 C25 18.66 25 19.32 25 20 C25.66 20 26.32 20 27 20 C27 20.99 27 21.98 27 23 C15.78 23 4.56 23 -7 23 C-7 19.7 -7 16.4 -7 13 C-6.01 13.495 -6.01 13.495 -5 14 C-4.67 10.04 -4.34 6.08 -4 2 C-2.68 2.33 -1.36 2.66 0 3 C0 2.01 0 1.02 0 0 Z " fill="#C1080B" transform="translate(17,85)"/>
<path d="M0 0 C0.66 0 1.32 0 2 0 C2 0.99 2 1.98 2 3 C2.66 3 3.32 3 4 3 C4 3.66 4 4.32 4 5 C3.34 5 2.68 5 2 5 C2 7.97 2 10.94 2 14 C2.66 14 3.32 14 4 14 C4 14.66 4 15.32 4 16 C2.68 16 1.36 16 0 16 C0 12.37 0 8.74 0 5 C-1.65 5.33 -3.3 5.66 -5 6 C-5.33 9.63 -5.66 13.26 -6 17 C-8.22855574 17.0814222 -10.45797655 17.13938079 -12.6875 17.1875 C-14.54955078 17.23970703 -14.54955078 17.23970703 -16.44921875 17.29296875 C-20.18564321 16.9846829 -22.00629483 16.18088273 -25 14 C-25.66 14.66 -26.32 15.32 -27 16 C-28.32 16 -29.64 16 -31 16 C-31.33 17.32 -31.66 18.64 -32 20 C-32.66 20 -33.32 20 -34 20 C-34 14.39 -34 8.78 -34 3 C-26.125 3 -26.125 3 -22 5 C-22 4.01 -22 3.02 -22 2 C-20.37247769 2.25523874 -18.74796804 2.52974494 -17.125 2.8125 C-15.76761719 3.03873047 -15.76761719 3.03873047 -14.3828125 3.26953125 C-12 4 -12 4 -10 7 C-9.67 5.68 -9.34 4.36 -9 3 C-6.03 3 -3.06 3 0 3 C0 2.01 0 1.02 0 0 Z " fill="#AF2B2F" transform="translate(166,88)"/>
<path d="M0 0 C1.03253906 0.01353516 1.03253906 0.01353516 2.0859375 0.02734375 C3.76577838 0.05067487 5.44543746 0.08653674 7.125 0.125 C7.125 0.455 7.125 0.785 7.125 1.125 C4.815 1.455 2.505 1.785 0.125 2.125 C0.125 3.115 0.125 4.105 0.125 5.125 C1.80529297 5.16367188 1.80529297 5.16367188 3.51953125 5.203125 C4.99222646 5.25940635 6.4648812 5.31675368 7.9375 5.375 C9.04448242 5.39626953 9.04448242 5.39626953 10.17382812 5.41796875 C15.61263416 5.66406857 15.61263416 5.66406857 18.1484375 7.9453125 C19.62720182 11.24591446 18.95392141 13.68178799 18.125 17.125 C17.465 17.785 16.805 18.445 16.125 19.125 C12.5 18.75 12.5 18.75 9.125 18.125 C7.9672494 14.65174819 8.05633348 11.76432552 8.125 8.125 C6.805 8.455 5.485 8.785 4.125 9.125 C3.795 12.425 3.465 15.725 3.125 19.125 C2.135 19.125 1.145 19.125 0.125 19.125 C-0.205 15.165 -0.535 11.205 -0.875 7.125 C-2.195 7.125 -3.515 7.125 -4.875 7.125 C-5.349375 6.609375 -5.82375 6.09375 -6.3125 5.5625 C-6.828125 5.088125 -7.34375 4.61375 -7.875 4.125 C-10.46617313 4.12656224 -10.46617313 4.12656224 -12.875 5.125 C-15.25227232 8.02938989 -15.25227232 8.02938989 -14.625 11.75 C-14.3775 12.86375 -14.13 13.9775 -13.875 15.125 C-11.16620665 16.47939668 -8.86566732 16.19001451 -5.875 16.125 C-5.215 14.805 -4.555 13.485 -3.875 12.125 C-5.855 12.125 -7.835 12.125 -9.875 12.125 C-9.875 11.465 -9.875 10.805 -9.875 10.125 C-7.235 10.125 -4.595 10.125 -1.875 10.125 C-1.875 12.435 -1.875 14.745 -1.875 17.125 C-5.52457865 19.46073034 -8.61410491 19.58152447 -12.875 19.125 C-15.23997439 17.25791495 -16.53530715 15.80438569 -17.875 13.125 C-18.28527017 9.43256845 -18.15888969 7.60542871 -16.25 4.375 C-11.55487057 -0.07301735 -6.19364465 -0.15604143 0 0 Z " fill="#BD2426" transform="translate(195.875,84.875)"/>
<path d="M0 0 C3.10632548 0.24898882 6.20924688 0.52794177 9.3125 0.8125 C10.63411133 0.91788086 10.63411133 0.91788086 11.98242188 1.02539062 C12.82998047 1.10595703 13.67753906 1.18652344 14.55078125 1.26953125 C15.33106689 1.33760986 16.11135254 1.40568848 16.9152832 1.47583008 C19.43584018 2.1095853 20.412072 2.96976957 22 5 C22.36328125 7.19140625 22.36328125 7.19140625 22.3125 9.5625 C22.30863281 10.34753906 22.30476563 11.13257812 22.30078125 11.94140625 C22 14 22 14 20 16 C17.125 16.375 17.125 16.375 14 16 C11.75 14.0625 11.75 14.0625 10 12 C9.34 11.67 8.68 11.34 8 11 C8 12.65 8 14.3 8 16 C7.01 16 6.02 16 5 16 C4.34 14.02 3.68 12.04 3 10 C2.01 11.98 1.02 13.96 0 16 C-1.875 15.4375 -1.875 15.4375 -4 14 C-5.44239217 10.10554113 -6 7.16477964 -6 3 C-4.02 3 -2.04 3 0 3 C0 2.01 0 1.02 0 0 Z " fill="#A41418" transform="translate(54,88)"/>
<path d="M0 0 C0.99 0 1.98 0 3 0 C2.88541307 1.43836751 2.75790884 2.87570966 2.625 4.3125 C2.55539063 5.11300781 2.48578125 5.91351563 2.4140625 6.73828125 C2 9 2 9 0 12 C-0.28229785 15.28869945 -0.28229785 15.28869945 -0.1875 19 C-0.18032959 19.66628418 -0.17315918 20.33256836 -0.16577148 21.01904297 C-0.04552578 28.44577426 0.46043414 35.72910914 2 43 C1.01 43.495 1.01 43.495 0 44 C-3 43 -3 43 -5 40 C-5.125 37.3125 -5.125 37.3125 -5 35 C-5.66 35 -6.32 35 -7 35 C-9.89502598 27.27214838 -10.5133172 19.32990125 -7.76171875 11.45703125 C-6.32319655 8.46933129 -4.93747317 5.69172063 -3 3 C-2.01 2.67 -1.02 2.34 0 2 C0 1.34 0 0.68 0 0 Z " fill="#C90507" transform="translate(190,21)"/>
<path d="M0 0 C0.80660568 -0.00095673 1.61321136 -0.00191345 2.44425964 -0.00289917 C4.13593627 -0.00357559 5.82761557 -0.0017591 7.51928711 0.00244141 C10.11513006 0.00783257 12.71080275 0.0024603 15.30664062 -0.00390625 C16.95442747 -0.00324606 18.6022142 -0.00196612 20.25 0 C21.02704788 -0.00202423 21.80409576 -0.00404846 22.60469055 -0.00613403 C28.06300025 0.01782825 28.06300025 0.01782825 30.29296875 1.1328125 C29.96296875 2.1228125 29.63296875 3.1128125 29.29296875 4.1328125 C27.0443215 4.35527225 24.79394252 4.56027807 22.54296875 4.7578125 C20.66351563 4.93183594 20.66351563 4.93183594 18.74609375 5.109375 C15.45709972 5.13169849 13.98276099 4.91242252 11.29296875 3.1328125 C10.96296875 4.4528125 10.63296875 5.7728125 10.29296875 7.1328125 C9.63296875 7.1328125 8.97296875 7.1328125 8.29296875 7.1328125 C8.29296875 10.4328125 8.29296875 13.7328125 8.29296875 17.1328125 C9.61296875 16.8028125 10.93296875 16.4728125 12.29296875 16.1328125 C12.62296875 12.8328125 12.95296875 9.5328125 13.29296875 6.1328125 C14.28296875 6.1328125 15.27296875 6.1328125 16.29296875 6.1328125 C16.29296875 10.4228125 16.29296875 14.7128125 16.29296875 19.1328125 C9.45703125 19.328125 9.45703125 19.328125 7.29296875 19.1328125 C5.29296875 17.1328125 5.29296875 17.1328125 5.09765625 14.53125 C5.12085938 13.53351563 5.1440625 12.53578125 5.16796875 11.5078125 C5.18601563 10.50492188 5.2040625 9.50203125 5.22265625 8.46875 C5.24585938 7.69789062 5.2690625 6.92703125 5.29296875 6.1328125 C6.28296875 6.1328125 7.27296875 6.1328125 8.29296875 6.1328125 C7.21953271 4.83592275 7.21953271 4.83592275 4.67578125 5 C3.60070312 5.00257812 2.525625 5.00515625 1.41796875 5.0078125 C0.34804687 5.00523438 -0.721875 5.00265625 -1.82421875 5 C-4.77722294 5.00496932 -4.77722294 5.00496932 -7.70703125 6.1328125 C-9.75 6.01171875 -9.75 6.01171875 -11.89453125 5.6953125 C-13.15265625 5.5096875 -14.41078125 5.3240625 -15.70703125 5.1328125 C-16.03703125 4.1428125 -16.36703125 3.1528125 -16.70703125 2.1328125 C-13.41192572 -1.16229303 -4.40551089 -0.01162793 0 0 Z " fill="#C80306" transform="translate(211.70703125,84.8671875)"/>
<path d="M0 0 C55.44 0 110.88 0 168 0 C168 0.33 168 0.66 168 1 C148.53 1 129.06 1 109 1 C109 1.66 109 2.32 109 3 C105.04 3 101.08 3 97 3 C97 8.61 97 14.22 97 20 C100.96 20 104.92 20 109 20 C109 20.33 109 20.66 109 21 C106.85423363 21.02685938 104.70837355 21.04633088 102.5625 21.0625 C101.36753906 21.07410156 100.17257813 21.08570312 98.94140625 21.09765625 C96 21 96 21 95 20 C94.89995097 17.75183935 94.87033116 15.50038093 94.875 13.25 C94.87242188 12.01765625 94.86984375 10.7853125 94.8671875 9.515625 C95 6 95 6 96 1 C53.43 1.495 53.43 1.495 10 2 C9.67 2.99 9.34 3.98 9 5 C8.67 4.01 8.34 3.02 8 2 C5.69 1.67 3.38 1.34 1 1 C1 9.25 1 17.5 1 26 C0.67 26 0.34 26 0 26 C0 17.42 0 8.84 0 0 Z " fill="#91060C" transform="translate(8,84)"/>
<path d="M0 0 C0.33 0 0.66 0 1 0 C1 3.3 1 6.6 1 10 C1.66 10 2.32 10 3 10 C3.33 8.68 3.66 7.36 4 6 C4.01030746 6.58437836 4.02061493 7.16875671 4.03123474 7.77084351 C4.13917841 13.83758003 4.25378606 19.90416436 4.37231445 25.97070312 C4.4157023 28.23662134 4.45737449 30.50257307 4.49731445 32.76855469 C4.55492385 36.02028518 4.61864502 39.27184636 4.68359375 42.5234375 C4.70030624 43.54118256 4.71701874 44.55892761 4.73423767 45.60751343 C4.75418289 46.54833771 4.77412811 47.48916199 4.79467773 48.45849609 C4.81022202 49.28900482 4.8257663 50.11951355 4.84178162 50.97518921 C4.87765197 53.06878436 4.87765197 53.06878436 6 55 C8.3140622 55.73075648 10.64828869 56.40138258 13 57 C13 57.33 13 57.66 13 58 C5.41 58 -2.18 58 -10 58 C-10 57.67 -10 57.34 -10 57 C-8.88625 56.731875 -7.7725 56.46375 -6.625 56.1875 C-2.78159049 55.34190981 -2.78159049 55.34190981 -1 52 C-0.6723603 49.59700223 -0.6723603 49.59700223 -0.68115234 46.88598633 C-0.66128265 45.84513382 -0.64141296 44.80428131 -0.62094116 43.73188782 C-0.60938995 42.60993515 -0.59783875 41.48798248 -0.5859375 40.33203125 C-0.56657135 39.18208176 -0.5472052 38.03213226 -0.5272522 36.84733582 C-0.46740239 33.16913301 -0.42104894 29.490899 -0.375 25.8125 C-0.33682524 23.32094978 -0.29777381 20.82941283 -0.2578125 18.33789062 C-0.16169638 12.22537806 -0.07666462 6.11278579 0 0 Z " fill="#941413" transform="translate(21,18)"/>
<path d="M0 0 C4.20477214 3.61805975 6.33716873 6.66863789 7.5 12.125 C7.561875 13.176875 7.62375 14.22875 7.6875 15.3125 C6.6875 16.3125 6.6875 16.3125 3.82006836 16.42602539 C2.56846924 16.42078857 1.31687012 16.41555176 0.02734375 16.41015625 C-0.96935585 16.40803383 -0.96935585 16.40803383 -1.9861908 16.40586853 C-4.11583899 16.40025518 -6.24538339 16.38770054 -8.375 16.375 C-9.81575369 16.36998671 -11.25650903 16.36542351 -12.69726562 16.36132812 C-16.23571102 16.35028145 -19.77409539 16.33300792 -23.3125 16.3125 C-23.3125 15.9825 -23.3125 15.6525 -23.3125 15.3125 C-16.7125 15.3125 -10.1125 15.3125 -3.3125 15.3125 C-3.06560948 8.41588139 -3.06560948 8.41588139 -6.3125 3.3125 C-8.81164688 1.41659547 -10.09213304 1.30781134 -13.25 1.375 C-18.17400487 2.88234843 -20.52719224 6.13453836 -23.3125 10.3125 C-23.6425 8.6625 -23.9725 7.0125 -24.3125 5.3125 C-24.3125 5.9725 -24.3125 6.6325 -24.3125 7.3125 C-24.9725 6.9825 -25.6325 6.6525 -26.3125 6.3125 C-20.57938221 -3.06896548 -9.27953788 -4.72731175 0 0 Z " fill="#901314" transform="translate(115.3125,32.6875)"/>
<path d="M0 0 C0.99 0 1.98 0 3 0 C3.33 2.31 3.66 4.62 4 7 C4.99 6.01 5.98 5.02 7 4 C7.99 4.33 8.98 4.66 10 5 C9.01 5.99 8.02 6.98 7 8 C7.433125 9.0828125 7.433125 9.0828125 7.875 10.1875 C8.91666667 12.79166667 9.95833333 15.39583333 11 18 C10.14535156 18.04898438 9.29070312 18.09796875 8.41015625 18.1484375 C7.30542969 18.22320312 6.20070313 18.29796875 5.0625 18.375 C3.40927734 18.47941406 3.40927734 18.47941406 1.72265625 18.5859375 C0.82417969 18.72257812 -0.07429688 18.85921875 -1 19 C-1.33 19.66 -1.66 20.32 -2 21 C-3.32 21 -4.64 21 -6 21 C-7.53266582 17.93466836 -7.10276471 14.73245728 -7.0625 11.375 C-7.05798828 10.66859375 -7.05347656 9.9621875 -7.04882812 9.234375 C-7.03703875 7.48954725 -7.01910324 5.744763 -7 4 C-5.02 4 -3.04 4 -1 4 C-0.67 2.68 -0.34 1.36 0 0 Z " fill="#B52225" transform="translate(86,87)"/>
<path d="M0 0 C0.33 0.99 0.66 1.98 1 3 C1.99 3 2.98 3 4 3 C4.33 2.34 4.66 1.68 5 1 C6.23184766 3.46369532 6.16732342 5.1894501 6.1875 7.9375 C6.20167969 8.81277344 6.21585938 9.68804687 6.23046875 10.58984375 C6 13 6 13 4 16 C-0.11791784 17.20544157 -3.97491207 17.31380243 -8.0625 16.0625 C-9.0215625 15.5365625 -9.0215625 15.5365625 -10 15 C-9.67 14.34 -9.34 13.68 -9 13 C-8.34 13.33 -7.68 13.66 -7 14 C-3.16063232 14.1421988 0.32016639 14.17754676 4 13 C4 10.69 4 8.38 4 6 C1.36 6 -1.28 6 -4 6 C-4 6.66 -4 7.32 -4 8 C-2.02 8 -0.04 8 2 8 C1.125 11.875 1.125 11.875 0 13 C-3.54622103 13.39402456 -5.398846 13.38535513 -8.4375 11.4375 C-10 9 -10 9 -9.9375 5.4375 C-9 2 -9 2 -7.8125 0 C-5.05274248 -1.52262484 -2.96304212 -0.72429919 0 0 Z " fill="#9B0813" transform="translate(190,89)"/>
<path d="M0 0 C2.97 0.495 2.97 0.495 6 1 C6.33 2.98 6.66 4.96 7 7 C6.34 7 5.68 7 5 7 C5 9.97 5 12.94 5 16 C5.66 16 6.32 16 7 16 C7 16.66 7 17.32 7 18 C5.68 17.67 4.36 17.34 3 17 C2.67 15.68 2.34 14.36 2 13 C-1.63 12.67 -5.26 12.34 -9 12 C-8.01 13.485 -8.01 13.485 -7 15 C-3.535 14.505 -3.535 14.505 0 14 C-0.66 15.32 -1.32 16.64 -2 18 C-7.36842105 18.35789474 -7.36842105 18.35789474 -9.875 16.9375 C-11.64273274 13.8930714 -11.36823916 11.4368988 -11 8 C-9.76953125 6.26171875 -9.76953125 6.26171875 -8 5 C-5.73828125 4.92578125 -5.73828125 4.92578125 -3.3125 5.3125 C-2.50425781 5.43238281 -1.69601563 5.55226563 -0.86328125 5.67578125 C-0.24839844 5.78277344 0.36648437 5.88976562 1 6 C0.67 4.02 0.34 2.04 0 0 Z " fill="#AC2528" transform="translate(40,86)"/>
<path d="M0 0 C1.66466618 0.34318419 3.33062025 0.68053146 5 1 C5 0.01 5 -0.98 5 -2 C5.66 -2 6.32 -2 7 -2 C7.62422779 4.68815484 8.12920865 11.28115045 8 18 C6.24635955 15.72026741 4.65167769 13.4426843 3.125 11 C-0.15239716 6.37308636 -3.63622671 3.75325554 -9 2 C-12.24998659 1.69799491 -15.47504291 1.53929794 -18.73632812 1.43359375 C-23.79808883 1.20191117 -23.79808883 1.20191117 -26 -1 C-17.79114137 -5.10442932 -8.35295624 -2.06019189 0 0 Z " fill="#9B1919" transform="translate(230,11)"/>
<path d="M0 0 C1.77503906 0.03480469 1.77503906 0.03480469 3.5859375 0.0703125 C5.36871094 0.09738281 5.36871094 0.09738281 7.1875 0.125 C8.10273438 0.14820312 9.01796875 0.17140625 9.9609375 0.1953125 C9.9609375 0.8553125 9.9609375 1.5153125 9.9609375 2.1953125 C8.9709375 2.1953125 7.9809375 2.1953125 6.9609375 2.1953125 C7.10131271 4.00824339 7.24838639 5.8206568 7.3984375 7.6328125 C7.47964844 8.64214844 7.56085938 9.65148437 7.64453125 10.69140625 C7.69305218 13.13172029 7.69305218 13.13172029 8.9609375 14.1953125 C10.64277698 14.42818258 12.3321791 14.60795416 14.0234375 14.7578125 C14.94253906 14.84160156 15.86164063 14.92539063 16.80859375 15.01171875 C17.51886719 15.07230469 18.22914063 15.13289063 18.9609375 15.1953125 C18.9609375 16.8453125 18.9609375 18.4953125 18.9609375 20.1953125 C17.29481845 20.2380335 15.62710865 20.23595082 13.9609375 20.1953125 C13.6309375 19.8653125 13.3009375 19.5353125 12.9609375 19.1953125 C9.68960916 19.20443754 6.42901121 19.32866692 3.16015625 19.453125 C-0.36608334 19.16895917 -1.44536158 18.47410492 -4.0390625 16.1953125 C-5.0290625 15.8653125 -6.0190625 15.5353125 -7.0390625 15.1953125 C-7.0390625 12.2253125 -7.0390625 9.2553125 -7.0390625 6.1953125 C-6.7090625 6.1953125 -6.3790625 6.1953125 -6.0390625 6.1953125 C-5.7090625 8.8353125 -5.3790625 11.4753125 -5.0390625 14.1953125 C-1.62263491 14.44547123 -1.62263491 14.44547123 1.9609375 14.1953125 C4.34892432 11.28945563 4.34892432 11.28945563 3.6484375 7.5703125 C3.31980627 4.37026938 3.31980627 4.37026938 1.9609375 3.1953125 C-0.36724214 2.82770519 -2.700901 2.49289669 -5.0390625 2.1953125 C-3.0390625 0.1953125 -3.0390625 0.1953125 0 0 Z " fill="#B4100F" transform="translate(210.0390625,88.8046875)"/>
<path d="M0 0 C6.6 0 13.2 0 20 0 C19.67 0.66 19.34 1.32 19 2 C18.34 2 17.68 2 17 2 C18.31551124 6.60428934 20.09196486 10.18320388 23 14 C23.66 14 24.32 14 25 14 C28.25494123 10.48141867 30.55946315 6.84590538 31 2 C30.01 2 29.02 2 28 2 C28.33 1.34 28.66 0.68 29 0 C33.29 0 37.58 0 42 0 C42 0.66 42 1.32 42 2 C41.11054688 2.37253906 40.22109375 2.74507812 39.3046875 3.12890625 C35.51502495 5.27458989 33.69161972 7.44188492 31.125 10.9375 C30.34382813 11.97777344 29.56265625 13.01804687 28.7578125 14.08984375 C26.65531469 17.00400562 26.65531469 17.00400562 27 21 C26.34 21 25.68 21 25 21 C25 19.68 25 18.36 25 17 C24.38125 16.9175 23.7625 16.835 23.125 16.75 C21 16 21 16 19.875 14 C19.58625 13.34 19.2975 12.68 19 12 C18.34 11.67 17.68 11.34 17 11 C16.5859375 8.93359375 16.5859375 8.93359375 16.375 6.4375 C16.30023438 5.61121094 16.22546875 4.78492188 16.1484375 3.93359375 C16.09945312 3.29550781 16.05046875 2.65742187 16 2 C13.69 2 11.38 2 9 2 C9.33 3.98 9.66 5.96 10 8 C10.66 8 11.32 8 12 8 C11.67 9.32 11.34 10.64 11 12 C10.62488281 11.44570313 10.24976563 10.89140625 9.86328125 10.3203125 C6.03562705 4.73667952 6.03562705 4.73667952 0 2 C0 1.34 0 0.68 0 0 Z " fill="#9B1A24" transform="translate(127,31)"/>
<path d="M0 0 C3.72710459 2.81515347 6.75782479 5.79041427 9.75 9.375 C10.52859375 10.29023437 11.3071875 11.20546875 12.109375 12.1484375 C14.14103505 15.21271816 14.67890574 17.37163482 15 21 C13.3125 21.6875 13.3125 21.6875 11 22 C4.65939115 19.14672602 1.89112469 14.05759459 -1 8 C-1.33 7.67 -1.66 7.34 -2 7 C-2.1875 4.5625 -2.1875 4.5625 -2 2 C-1.34 1.34 -0.68 0.68 0 0 Z " fill="#BE090B" transform="translate(46,38)"/>
<path d="M0 0 C8 0 8 0 10 1.125 C11.48549091 3.91029546 11.38050713 5.89252511 11 9 C9.75 11.375 9.75 11.375 8 13 C6.68 13 5.36 13 4 13 C3.67 14.65 3.34 16.3 3 18 C2.01 17.67 1.02 17.34 0 17 C0 11.39 0 5.78 0 0 Z " fill="#FBC8C6" transform="translate(230,91)"/>
<path d="M0 0 C12.21 0 24.42 0 37 0 C36.67 1.32 36.34 2.64 36 4 C30.555 3.505 30.555 3.505 25 3 C25 4.32 25 5.64 25 7 C24.01 7 23.02 7 22 7 C22 6.01 22 5.02 22 4 C20.85660156 4.01160156 19.71320313 4.02320312 18.53515625 4.03515625 C17.04427246 4.04453288 15.55338691 4.05363321 14.0625 4.0625 C12.93038086 4.07506836 12.93038086 4.07506836 11.77539062 4.08789062 C9.85005687 4.09652441 7.92464419 4.05224333 6 4 C5.67 3.67 5.34 3.34 5 3 C2.94603274 3.40929986 2.94603274 3.40929986 1 4 C0.67 2.68 0.34 1.36 0 0 Z " fill="#C80606" transform="translate(119,86)"/>
<path d="M0 0 C0.33 0 0.66 0 1 0 C1 19.14 1 38.28 1 58 C-5.4195656 54.7902172 -6.40036186 53.61120062 -10 48 C-8.515 47.505 -8.515 47.505 -7 47 C-7 46.34 -7 45.68 -7 45 C-5.02 45 -3.04 45 -1 45 C-0.67 30.15 -0.34 15.3 0 0 Z " fill="#A6060B" transform="translate(69,16)"/>
<path d="M0 0 C7 0 7 0 8.9375 1.0625 C10.6140629 4.11976176 10.36528977 6.5906288 10 10 C8.75 11.9375 8.75 11.9375 7 13 C5.68 13 4.36 13 3 13 C2.67 14.32 2.34 15.64 2 17 C1.34 17 0.68 17 0 17 C0 11.39 0 5.78 0 0 Z " fill="#F7C2BD" transform="translate(132,91)"/>
<path d="M0 0 C8.25 0 16.5 0 25 0 C24.01 0.66 23.02 1.32 22 2 C19.51118295 3.86046507 19.04807524 4.68654725 18.56762695 7.8190918 C18.54144287 8.93453369 18.51525879 10.04997559 18.48828125 11.19921875 C18.45283203 12.40771484 18.41738281 13.61621094 18.38085938 14.86132812 C18.35830078 16.12396484 18.33574219 17.38660156 18.3125 18.6875 C18.27833984 19.96173828 18.24417969 21.23597656 18.20898438 22.54882812 C18.12639216 25.69913103 18.05727665 28.84915157 18 32 C16.1875 33.0625 16.1875 33.0625 14 34 C13.01 33.67 12.02 33.34 11 33 C12.65 32.34 14.3 31.68 16 31 C16.02505615 30.19256348 16.0501123 29.38512695 16.07592773 28.55322266 C16.19165487 24.91031083 16.31448635 21.26767274 16.4375 17.625 C16.47681641 16.35398437 16.51613281 15.08296875 16.55664062 13.7734375 C16.59853516 12.56171875 16.64042969 11.35 16.68359375 10.1015625 C16.72025146 8.98088379 16.75690918 7.86020508 16.79467773 6.70556641 C17 4 17 4 18 2 C13.545 2.495 13.545 2.495 9 3 C9.33 3.33 9.66 3.66 10 4 C10.08758003 5.99964982 10.10696576 8.0023611 10.09765625 10.00390625 C10.09443359 11.21884766 10.09121094 12.43378906 10.08789062 13.68554688 C10.07951172 14.96494141 10.07113281 16.24433594 10.0625 17.5625 C10.05798828 18.84576172 10.05347656 20.12902344 10.04882812 21.45117188 C10.03699545 24.63416022 10.02051068 27.81705762 10 31 C9.01 31 8.02 31 7 31 C7.33 30.67 7.66 30.34 8 30 C8.25299591 26.04816132 8.18522734 22.08397741 8.1875 18.125 C8.19974609 17.00996094 8.21199219 15.89492188 8.22460938 14.74609375 C8.22654297 13.67746094 8.22847656 12.60882813 8.23046875 11.5078125 C8.23663208 10.03272217 8.23663208 10.03272217 8.24291992 8.52783203 C8.17729178 5.75399258 8.17729178 5.75399258 6 3 C2.94570927 1.78715124 2.94570927 1.78715124 0 1 C0 0.67 0 0.34 0 0 Z " fill="#911618" transform="translate(221,40)"/>
<path d="M0 0 C1.65 0 3.3 0 5 0 C5.45214746 21.80355551 5.45214746 21.80355551 3 28 C2.01 28.33 1.02 28.66 0 29 C0 19.43 0 9.86 0 0 Z " fill="#CA0206" transform="translate(232,43)"/>
<path d="M0 0 C3 0.25 3 0.25 5 2.25 C5.265625 4.34375 5.265625 4.34375 5.25 6.75 C5.25515625 7.5440625 5.2603125 8.338125 5.265625 9.15625 C5 11.25 5 11.25 3 13.25 C0 13.5625 0 13.5625 -3 13.25 C-5.71232939 9.18150591 -5.30699887 7.08523216 -5 2.25 C-3 0.25 -3 0.25 0 0 Z " fill="#F9D1CC" transform="translate(71,90.75)"/>
<path d="M0 0 C2.5 0.4375 2.5 0.4375 4.375 2 C5.97279963 5.46189919 5.37751077 7.79245524 4.5 11.4375 C3.84 12.0975 3.18 12.7575 2.5 13.4375 C-1.125 13.0625 -1.125 13.0625 -4.5 12.4375 C-4.74954005 11.00339632 -4.97392642 9.56489928 -5.1875 8.125 C-5.31511719 7.32449219 -5.44273437 6.52398437 -5.57421875 5.69921875 C-5.5 3.4375 -5.5 3.4375 -4.17578125 1.671875 C-2.5 0.4375 -2.5 0.4375 0 0 Z " fill="#F9C4C2" transform="translate(209.5,90.5625)"/>
<path d="M0 0 C4.59195094 1.14798774 4.87820524 1.73528573 7.25 5.5625 C8.03117187 6.80193359 8.03117187 6.80193359 8.828125 8.06640625 C9.21484375 8.70449219 9.6015625 9.34257813 10 10 C10.33 6.7 10.66 3.4 11 0 C11.66 0 12.32 0 13 0 C13 5.28 13 10.56 13 16 C12.01 16 11.02 16 10 16 C8.39453125 14.03125 8.39453125 14.03125 6.8125 11.5 C6.28269531 10.6646875 5.75289062 9.829375 5.20703125 8.96875 C4.80871094 8.3190625 4.41039062 7.669375 4 7 C3.67 10.3 3.34 13.6 3 17 C2.01 17 1.02 17 0 17 C0 11.39 0 5.78 0 0 Z " fill="#EEBDBB" transform="translate(13,87)"/>
<path d="M0 0 C7.59 0 15.18 0 23 0 C23 0.33 23 0.66 23 1 C21.865625 1.28875 20.73125 1.5775 19.5625 1.875 C18.386875 2.24625 17.21125 2.6175 16 3 C14.64433895 5.7113221 14.83768915 7.88307998 14.79467773 10.91845703 C14.77473251 12.15959259 14.75478729 13.40072815 14.73423767 14.67947388 C14.7172534 16.0389188 14.70037459 17.39836505 14.68359375 18.7578125 C14.66302419 20.14501567 14.64202772 21.53221257 14.62062073 22.91940308 C14.56540019 26.57227505 14.51599089 30.22520359 14.46777344 33.87817383 C14.41755825 37.60503174 14.36187229 41.33180741 14.30664062 45.05859375 C14.19905929 52.37232621 14.09761432 59.68612701 14 67 C12.0625 66.1875 12.0625 66.1875 10 65 C9.67 64.01 9.34 63.02 9 62 C9.99 62.33 10.98 62.66 12 63 C12.01030746 62.26750534 12.02061493 61.53501068 12.03123474 60.78031921 C12.12918764 53.87930492 12.23169903 46.9783718 12.33933926 40.07750225 C12.39451792 36.52964549 12.44792977 32.98178041 12.49731445 29.43383789 C12.55415852 25.35554042 12.61866801 21.27739562 12.68359375 17.19921875 C12.70030624 15.92414963 12.71701874 14.64908051 12.73423767 13.33537292 C12.75418289 12.15437515 12.77412811 10.97337738 12.79467773 9.7565918 C12.81022202 8.71512497 12.8257663 7.67365814 12.84178162 6.60063171 C13 4 13 4 14 1 C12.68 1 11.36 1 10 1 C9.67 2.32 9.34 3.64 9 5 C8.62875 4.525625 8.2575 4.05125 7.875 3.5625 C5.37353038 1.47794198 3.18406582 1.35378509 0 1 C0 0.67 0 0.34 0 0 Z " fill="#7E0F18" transform="translate(57,10)"/>
<path d="M0 0 C5.71085294 -0.02481154 11.42167414 -0.04291275 17.13256836 -0.05493164 C19.07332913 -0.05994485 21.01408616 -0.06675712 22.95483398 -0.07543945 C25.75245084 -0.08763732 28.55001755 -0.09325855 31.34765625 -0.09765625 C32.2083522 -0.10281754 33.06904816 -0.10797882 33.95582581 -0.11329651 C38.74729665 -0.11373768 43.27500764 0.19438183 48 1 C45.63707344 3.52588702 44.33537489 4.88820837 41 6 C40.67 9.63 40.34 13.26 40 17 C39.67 17 39.34 17 39 17 C38.855625 15.906875 38.71125 14.81375 38.5625 13.6875 C38.11711896 10.06877013 38.11711896 10.06877013 37 7 C32.05 6.01 32.05 6.01 27 5 C27 4.67 27 4.34 27 4 C30.63 4 34.26 4 38 4 C38.33 3.01 38.66 2.02 39 1 C26.13 1.33 13.26 1.66 0 2 C0 1.34 0 0.68 0 0 Z " fill="#B40A0E" transform="translate(117,85)"/>
<path d="M0 0 C3.3 0 6.6 0 10 0 C9.8613598 4.2710989 9.71286099 8.54179892 9.5625 12.8125 C9.52318359 14.02744141 9.48386719 15.24238281 9.44335938 16.49414062 C9.40146484 17.65751953 9.35957031 18.82089844 9.31640625 20.01953125 C9.26141968 21.62985229 9.26141968 21.62985229 9.20532227 23.27270508 C9 26 9 26 8 29 C6.34795544 29.70211894 4.68076231 30.36971413 3 31 C2.67 31.66 2.34 32.32 2 33 C-0.31 33 -2.62 33 -5 33 C-3.03617993 31.49440461 -1.21736634 30.10868317 1 29 C1.02891546 24.54168018 1.04676981 20.08338431 1.0625 15.625 C1.07087891 14.35398437 1.07925781 13.08296875 1.08789062 11.7734375 C1.09111328 10.56171875 1.09433594 9.35 1.09765625 8.1015625 C1.10289307 6.98088379 1.10812988 5.86020508 1.11352539 4.70556641 C1.18621466 2.03132657 1.18621466 2.03132657 0 0 Z M3 1 C3 10.57 3 20.14 3 30 C3.99 29.67 4.98 29.34 6 29 C9.23400203 20.82785117 8.18029132 9.69404805 8 1 C6.35 1 4.7 1 3 1 Z " fill="#B90A0F" transform="translate(229,42)"/>
<path d="M0 0 C0.99 0.66 1.98 1.32 3 2 C2.36191406 2.81984375 1.72382813 3.6396875 1.06640625 4.484375 C0.23143164 5.57265651 -0.60318507 6.66121268 -1.4375 7.75 C-1.85837891 8.28882813 -2.27925781 8.82765625 -2.71289062 9.3828125 C-5.91570949 13.29028668 -5.91570949 13.29028668 -7 18 C-5.68 19.32 -4.36 20.64 -3 22 C-7.62 22 -12.24 22 -17 22 C-17 21.34 -17 20.68 -17 20 C-16.30519531 19.46890625 -15.61039063 18.9378125 -14.89453125 18.390625 C-11.13599086 15.2864054 -8.54110875 11.67501228 -5.6875 7.75 C-5.13771484 7.00492188 -4.58792969 6.25984375 -4.02148438 5.4921875 C-2.67503808 3.66570383 -1.33480532 1.83499867 0 0 Z " fill="#8B1219" transform="translate(145,54)"/>
<path d="M0 0 C0.66 0 1.32 0 2 0 C2.66 1.98 3.32 3.96 4 6 C4.66 5.01 5.32 4.02 6 3 C6.98095748 1.98131338 7.97702078 0.97648017 9 0 C10.76462683 3.08809695 11 4.23312136 11 8 C11.66 8 12.32 8 13 8 C13.33 5.69 13.66 3.38 14 1 C14.99 0.67 15.98 0.34 17 0 C16.17812739 4.38332057 15.09845718 8.67940177 14 13 C13.01 13 12.02 13 11 13 C10.34 11.02 9.68 9.04 9 7 C8.01 8.98 7.02 10.96 6 13 C4.125 12.4375 4.125 12.4375 2 11 C0.55760783 7.10554113 0 4.16477964 0 0 Z " fill="#EDB6B1" transform="translate(48,91)"/>
<path d="M0 0 C3.9375 0.4375 3.9375 0.4375 6.9375 2.4375 C6.9375 3.4275 6.9375 4.4175 6.9375 5.4375 C6.2775 5.4375 5.6175 5.4375 4.9375 5.4375 C4.504375 4.921875 4.07125 4.40625 3.625 3.875 C1.98102175 2.14222037 1.98102175 2.14222037 -0.625 2.5625 C-3.3886611 3.28139168 -3.3886611 3.28139168 -5.0625 6.4375 C-4.90422822 10.04617549 -4.90422822 10.04617549 -4.0625 13.4375 C-1.35370665 14.79189668 0.94683268 14.50251451 3.9375 14.4375 C4.5975 13.1175 5.2575 11.7975 5.9375 10.4375 C3.9575 10.4375 1.9775 10.4375 -0.0625 10.4375 C-0.0625 9.7775 -0.0625 9.1175 -0.0625 8.4375 C2.5775 8.4375 5.2175 8.4375 7.9375 8.4375 C7.9375 10.7475 7.9375 13.0575 7.9375 15.4375 C4.28792135 17.77323034 1.19839509 17.89402447 -3.0625 17.4375 C-5.42747439 15.57041495 -6.72280715 14.11688569 -8.0625 11.4375 C-8.46866229 7.78203935 -8.27684253 5.84832318 -6.5625 2.5625 C-3.89842424 0.2980356 -3.3167943 0.09162415 0 0 Z " fill="#F9C8C6" transform="translate(186.0625,86.5625)"/>
<path d="M0 0 C4.27077656 -0.05794812 8.54145236 -0.09357874 12.8125 -0.125 C14.02744141 -0.14175781 15.24238281 -0.15851563 16.49414062 -0.17578125 C17.65751953 -0.18222656 18.82089844 -0.18867187 20.01953125 -0.1953125 C21.62985229 -0.21102295 21.62985229 -0.21102295 23.27270508 -0.22705078 C26 0 26 0 29 2 C26.18716608 4.81283392 18.77251944 3.94032173 15 4 C11.84977686 3.57882419 9.06450705 2.88299356 6 2 C6 2.99 6 3.98 6 5 C3.69 4.67 1.38 4.34 -1 4 C-0.67 2.68 -0.34 1.36 0 0 Z " fill="#CB0505" transform="translate(48,86)"/>
<path d="M0 0 C4.29 0 8.58 0 13 0 C13 0.66 13 1.32 13 2 C9.37 2 5.74 2 2 2 C2 3.65 2 5.3 2 7 C5.3 7 8.6 7 12 7 C12 7.66 12 8.32 12 9 C8.7 9 5.4 9 2 9 C2 10.98 2 12.96 2 15 C5.63 15 9.26 15 13 15 C13 15.66 13 16.32 13 17 C8.71 17 4.42 17 0 17 C0 11.39 0 5.78 0 0 Z " fill="#FBC2C3" transform="translate(105,87)"/>
<path d="M0 0 C5.94 0 11.88 0 18 0 C18 1.65 18 3.3 18 5 C17.67 3.68 17.34 2.36 17 1 C15.56138706 1.08746284 14.12402492 1.19565348 12.6875 1.3125 C11.88699219 1.37050781 11.08648437 1.42851563 10.26171875 1.48828125 C7.63727666 2.08206694 6.69179328 2.95780294 5 5 C6.32 4.67 7.64 4.34 9 4 C9.33 4.66 9.66 5.32 10 6 C5.25 8.875 5.25 8.875 3 10 C3 7.36 3 4.72 3 2 C2.01 2 1.02 2 0 2 C0 3.65 0 5.3 0 7 C-2.31 6.67 -4.62 6.34 -7 6 C-7 9.96 -7 13.92 -7 18 C-8.65 18.33 -10.3 18.66 -12 19 C-11.71572583 17.41532272 -11.42225182 15.8322943 -11.125 14.25 C-10.96257812 13.36828125 -10.80015625 12.4865625 -10.6328125 11.578125 C-10.03203736 9.13052256 -9.22002883 7.19400143 -8 5 C-5.69 5 -3.38 5 -1 5 C-0.67 3.35 -0.34 1.7 0 0 Z " fill="#B10D11" transform="translate(86,85)"/>
<path d="M0 0 C10.89 0 21.78 0 33 0 C32.67 1.65 32.34 3.3 32 5 C29.69 5 27.38 5 25 5 C25 7.97 25 10.94 25 14 C24.67 14 24.34 14 24 14 C23.71125 13.05125 23.4225 12.1025 23.125 11.125 C21.8953779 7.70938306 21.05212846 6.55700919 17.875 4.875 C17.25625 4.58625 16.6375 4.2975 16 4 C19.465 3.505 19.465 3.505 23 3 C20.59458071 1.79729036 18.89633409 1.79683337 16.2109375 1.68359375 C15.26992187 1.64169922 14.32890625 1.59980469 13.359375 1.55664062 C12.37453125 1.51732422 11.3896875 1.47800781 10.375 1.4375 C9.38242187 1.39431641 8.38984375 1.35113281 7.3671875 1.30664062 C4.91160162 1.20038931 2.45591297 1.09835036 0 1 C0 0.67 0 0.34 0 0 Z " fill="#B7060C" transform="translate(53,85)"/>
<path d="M0 0 C0.33 1.98 0.66 3.96 1 6 C-1.64 6.33 -4.28 6.66 -7 7 C-6.67 7.66 -6.34 8.32 -6 9 C-2.535 8.505 -2.535 8.505 1 8 C0.67 8.99 0.34 9.98 0 11 C-6.37426409 12.32296047 -6.37426409 12.32296047 -8.9375 11 C-10.58367385 7.90131981 -10.36841966 5.43858351 -10 2 C-7.69981438 -2.32976117 -4.22839932 -0.87759231 0 0 Z " fill="#F9D0C9" transform="translate(154,92)"/>
<path d="M0 0 C2.31 0.33 4.62 0.66 7 1 C6.01 1.33 5.02 1.66 4 2 C4 7.61 4 13.22 4 19 C3.67 19 3.34 19 3 19 C2.67 17.35 2.34 15.7 2 14 C1.67 16.97 1.34 19.94 1 23 C7.6 23 14.2 23 21 23 C21 23.33 21 23.66 21 24 C14.07 24 7.14 24 0 24 C0 16.08 0 8.16 0 0 Z " fill="#A80A0B" transform="translate(9,85)"/>
<path d="M0 0 C1.423125 0.7425 1.423125 0.7425 2.875 1.5 C7.51587433 3.52978692 12.02390572 3.27033108 17 3 C17 3.99 17 4.98 17 6 C13.72448889 9.27551111 9.48091584 8.93824159 5 9 C1.4375 8.3125 1.4375 8.3125 -1 7 C-2 5.0625 -2 5.0625 -2 3 C-1.34 2.01 -0.68 1.02 0 0 Z " fill="#CE0203" transform="translate(97,67)"/>
<path d="M0 0 C0.99 0 1.98 0 3 0 C3.33 0.99 3.66 1.98 4 3 C4.66 3.33 5.32 3.66 6 4 C6 7.63 6 11.26 6 15 C4.35 15.33 2.7 15.66 1 16 C-1.67382693 12.21207852 -2.69173602 9.64451328 -2 5 C0 2.625 0 2.625 2 1 C1.34 0.67 0.68 0.34 0 0 Z " fill="#C30505" transform="translate(171,90)"/>
<path d="M0 0 C2.21894175 3.51332444 2.02604025 5.81842041 1.5 9.875 C0.62129888 19.14320466 1.04657863 27.98346012 6 36 C5.6875 38.8125 5.6875 38.8125 5 41 C2.11424181 40.60196439 1.17810487 40.20990931 -0.75 37.9375 C-1.36875 36.9784375 -1.36875 36.9784375 -2 36 C-1.01 36 -0.02 36 1 36 C0.855625 35.01902344 0.71125 34.03804687 0.5625 33.02734375 C-0.95550889 22.19851988 -2.53618323 10.77370636 0 0 Z " fill="#B00E12" transform="translate(190,28)"/>
<path d="M0 0 C0.99 0 1.98 0 3 0 C3 3.63 3 7.26 3 11 C4.32 10.67 5.64 10.34 7 10 C7.33 6.7 7.66 3.4 8 0 C8.99 0 9.98 0 11 0 C11 4.29 11 8.58 11 13 C4.1640625 13.1953125 4.1640625 13.1953125 2 13 C0 11 0 11 -0.1953125 8.3984375 C-0.17210937 7.40070313 -0.14890625 6.40296875 -0.125 5.375 C-0.10695312 4.37210937 -0.08890625 3.36921875 -0.0703125 2.3359375 C-0.04710937 1.56507812 -0.02390625 0.79421875 0 0 Z " fill="#EBA9A7" transform="translate(217,91)"/>
<path d="M0 0 C1.65 0 3.3 0 5 0 C5 3.63 5 7.26 5 11 C6.32 11.66 7.64 12.32 9 13 C5.7 13 2.4 13 -1 13 C-1.02686553 11.02090602 -1.04633375 9.04171029 -1.0625 7.0625 C-1.07410156 5.96035156 -1.08570313 4.85820313 -1.09765625 3.72265625 C-1 1 -1 1 0 0 Z " fill="#AB1217" transform="translate(161,93)"/>
<path d="M0 0 C0.66 0 1.32 0 2 0 C2 0.99 2 1.98 2 3 C2.66 3 3.32 3 4 3 C4 3.66 4 4.32 4 5 C3.34 5 2.68 5 2 5 C2 7.97 2 10.94 2 14 C2.66 14 3.32 14 4 14 C4 14.66 4 15.32 4 16 C2.68 16 1.36 16 0 16 C0 12.37 0 8.74 0 5 C-1.65 5.33 -3.3 5.66 -5 6 C-5.33 9.3 -5.66 12.6 -6 16 C-6.66 16 -7.32 16 -8 16 C-8 12.04 -8 8.08 -8 4 C-5.36 3.67 -2.72 3.34 0 3 C0 2.01 0 1.02 0 0 Z " fill="#FDD3CF" transform="translate(166,88)"/>
<path d="M0 0 C4.25209792 4.12324647 8.13635705 8.51282966 12 13 C11.67 13.66 11.34 14.32 11 15 C8.36 12.03 5.72 9.06 3 6 C2.01 6.495 2.01 6.495 1 7 C0.73781251 10.14624993 0.75245633 11.61837017 2.5 14.3125 C2.995 14.869375 3.49 15.42625 4 16 C3.67 16.66 3.34 17.32 3 18 C1.51551984 16.23361856 0.03758035 14.46173862 -1.4375 12.6875 C-2.26121094 11.70136719 -3.08492187 10.71523438 -3.93359375 9.69921875 C-6 7 -6 7 -7 4 C-5.02 4 -3.04 4 -1 4 C-0.67 2.68 -0.34 1.36 0 0 Z " fill="#A21216" transform="translate(44,33)"/>
<path d="M0 0 C2 1.375 2 1.375 4 3 C4 3.66 4 4.32 4 5 C4.66 5 5.32 5 6 5 C6 6.32 6 7.64 6 9 C-8.85 9 -23.7 9 -39 9 C-39 8.67 -39 8.34 -39 8 C-24.48 8 -9.96 8 5 8 C5 7.34 5 6.68 5 6 C2.36 5.67 -0.28 5.34 -3 5 C-1.125 1.125 -1.125 1.125 0 0 Z " fill="#B10710" transform="translate(124,100)"/>
<path d="M0 0 C1.22589844 0.01353516 1.22589844 0.01353516 2.4765625 0.02734375 C3.41628906 0.04474609 3.41628906 0.04474609 4.375 0.0625 C5.25340996 3.15970845 5.36935406 4.96895403 4.375 8.0625 C3.385 7.7325 2.395 7.4025 1.375 7.0625 C1.375 6.0725 1.375 5.0825 1.375 4.0625 C1.08625 4.701875 0.7975 5.34125 0.5 6 C-0.625 8.0625 -0.625 8.0625 -2.625 9.0625 C-2.625 11.0425 -2.625 13.0225 -2.625 15.0625 C-3.615 15.5575 -3.615 15.5575 -4.625 16.0625 C-4.625 13.0925 -4.625 10.1225 -4.625 7.0625 C-3.965 7.0625 -3.305 7.0625 -2.625 7.0625 C-2.625 6.4025 -2.625 5.7425 -2.625 5.0625 C-3.285 5.0625 -3.945 5.0625 -4.625 5.0625 C-4.625 4.0725 -4.625 3.0825 -4.625 2.0625 C-5.285 1.7325 -5.945 1.4025 -6.625 1.0625 C-4.21954362 -0.14022819 -2.67503047 -0.03821472 0 0 Z " fill="#CB080F" transform="translate(172.625,85.9375)"/>
<path d="M0 0 C2.31 0.33 4.62 0.66 7 1 C7 1.66 7 2.32 7 3 C7.66 3.66 8.32 4.32 9 5 C8.9765625 7.3828125 8.9765625 7.3828125 8.625 10.125 C8.45871094 11.49011719 8.45871094 11.49011719 8.2890625 12.8828125 C8.14597656 13.93082031 8.14597656 13.93082031 8 15 C10.64 15.33 13.28 15.66 16 16 C16 16.33 16 16.66 16 17 C6.1 17 -3.8 17 -14 17 C-14 16.67 -14 16.34 -14 16 C-7.4 16 -0.8 16 6 16 C6.13035916 9.10370961 6.13035916 9.10370961 3 4 C2.67 3.01 2.34 2.02 2 1 C1.34 0.67 0.68 0.34 0 0 Z " fill="#A7262B" transform="translate(106,32)"/>
<path d="M0 0 C0 0.99 0 1.98 0 3 C-2.97 2.505 -2.97 2.505 -6 2 C-6.33 4.97 -6.66 7.94 -7 11 C-5.35 11.33 -3.7 11.66 -2 12 C-2 11.34 -2 10.68 -2 10 C-3.32 9.67 -4.64 9.34 -6 9 C-5.34 8.01 -4.68 7.02 -4 6 C-4 6.66 -4 7.32 -4 8 C-2.02 8 -0.04 8 2 8 C1.125 11.875 1.125 11.875 0 13 C-3.54622103 13.39402456 -5.398846 13.38535513 -8.4375 11.4375 C-10 9 -10 9 -9.9375 5.4375 C-9 2 -9 2 -7.8125 0 C-5.05274248 -1.52262484 -2.96304212 -0.72429919 0 0 Z " fill="#9A2021" transform="translate(190,89)"/>
<path d="M0 0 C0.66 0 1.32 0 2 0 C2.33 2.31 2.66 4.62 3 7 C3.99 6.01 4.98 5.02 6 4 C6.99 4.33 7.98 4.66 9 5 C8.01 5.99 7.02 6.98 6 8 C7.19899698 11.0831351 8.47700477 14.06279492 10 17 C8.125 16.75 8.125 16.75 6 16 C4.875 14 4.875 14 4 12 C3.34 11.67 2.68 11.34 2 11 C2 12.65 2 14.3 2 16 C1.34 16 0.68 16 0 16 C0 10.72 0 5.44 0 0 Z " fill="#FCD6D6" transform="translate(87,87)"/>
<path d="M0 0 C0.66 0 1.32 0 2 0 C2 0.66 2 1.32 2 2 C2.66 2 3.32 2 4 2 C5.02611949 3.65071396 6.02308143 5.31970006 7 7 C7.556875 7.556875 8.11375 8.11375 8.6875 8.6875 C9.120625 9.120625 9.55375 9.55375 10 10 C10 10.66 10 11.32 10 12 C6.7 12 3.4 12 0 12 C-0.19401633 10.18818595 -0.38004375 8.37551468 -0.5625 6.5625 C-0.66691406 5.55316406 -0.77132812 4.54382813 -0.87890625 3.50390625 C-0.91886719 2.67761719 -0.95882812 1.85132812 -1 1 C-0.67 0.67 -0.34 0.34 0 0 Z " fill="#BF0806" transform="translate(158,63)"/>
<path d="M0 0 C3.38555647 1.40091992 5.18190974 2.79669811 7 6 C7.6875 9.75 7.6875 9.75 8 13 C5.69 13 3.38 13 1 13 C1.02320312 12.30132812 1.04640625 11.60265625 1.0703125 10.8828125 C1.08835937 9.97273438 1.10640625 9.06265625 1.125 8.125 C1.15980469 6.76761719 1.15980469 6.76761719 1.1953125 5.3828125 C1.24324836 2.81193006 1.24324836 2.81193006 -1 1 C-0.67 0.67 -0.34 0.34 0 0 Z " fill="#C60B13" transform="translate(113,34)"/>
<path d="M0 0 C1.77503906 0.03480469 1.77503906 0.03480469 3.5859375 0.0703125 C5.36871094 0.09738281 5.36871094 0.09738281 7.1875 0.125 C8.10273438 0.14820312 9.01796875 0.17140625 9.9609375 0.1953125 C9.9609375 0.8553125 9.9609375 1.5153125 9.9609375 2.1953125 C8.9709375 2.1953125 7.9809375 2.1953125 6.9609375 2.1953125 C7.10178546 3.98737797 7.24877451 5.77896167 7.3984375 7.5703125 C7.47964844 8.56804687 7.56085938 9.56578125 7.64453125 10.59375 C7.81059376 13.17458863 7.81059376 13.17458863 8.9609375 15.1953125 C6.6509375 15.1953125 4.3409375 15.1953125 1.9609375 15.1953125 C2.3115625 14.6796875 2.6621875 14.1640625 3.0234375 13.6328125 C4.33197273 10.23062091 3.6904125 7.71005566 2.9609375 4.1953125 C0.99270864 2.22708364 -2.38714959 2.53282869 -5.0390625 2.1953125 C-3.0390625 0.1953125 -3.0390625 0.1953125 0 0 Z " fill="#8B1010" transform="translate(210.0390625,88.8046875)"/>
<path d="M0 0 C3 1 3 1 5 3 C5.66 2.01 6.32 1.02 7 0 C7.99 0 8.98 0 10 0 C9.67 0.5775 9.34 1.155 9 1.75 C7.5325267 5.05181492 7.78311219 7.40355853 9 10.75 C9.33 11.4925 9.66 12.235 10 13 C9.401875 12.67 8.80375 12.34 8.1875 12 C5.94613529 10.79212012 5.94613529 10.79212012 3 11 C2.01 11.66 1.02 12.32 0 13 C1 9 1 9 1.6875 7.0625 C2.11269334 4.25622394 1.19127863 2.52270768 0 0 Z " fill="#F5C2BE" transform="translate(120,91)"/>
<path d="M0 0 C0.66 0.33 1.32 0.66 2 1 C-0.2349326 6.73091655 -2.30732011 10.9590812 -7 15 C-7.66 14.67 -8.32 14.34 -9 14 C-8.34 13.01 -7.68 12.02 -7 11 C-7.66386719 11.03480469 -8.32773438 11.06960937 -9.01171875 11.10546875 C-17.78207381 11.37434095 -17.78207381 11.37434095 -22 8 C-21.34 7.67 -20.68 7.34 -20 7 C-18.948125 7.495 -18.948125 7.495 -17.875 8 C-13.31068649 9.58758731 -9.24034417 8.66604827 -4.6875 7.3125 C-2.17022582 5.35462008 -1.25133285 2.87806556 0 0 Z " fill="#8C1218" transform="translate(121,60)"/>
<path d="M0 0 C2.31 0 4.62 0 7 0 C7 4.62 7 9.24 7 14 C0 5.25 0 5.25 0 0 Z " fill="#AB1219" transform="translate(17,85)"/>
<path d="M0 0 C0.66 0.99 1.32 1.98 2 3 C2.87072072 4.23220174 3.74584102 5.46130459 4.625 6.6875 C5.07101563 7.31011719 5.51703125 7.93273437 5.9765625 8.57421875 C6.31429687 9.04472656 6.65203125 9.51523438 7 10 C6.360625 10.61875 5.72125 11.2375 5.0625 11.875 C2.96116416 13.82597612 2.96116416 13.82597612 2 16 C1.01 15.34 0.02 14.68 -1 14 C-1 13.01 -1 12.02 -1 11 C-1.66 11 -2.32 11 -3 11 C-3 10.34 -3 9.68 -3 9 C-2.34 9 -1.68 9 -1 9 C-0.67 6.03 -0.34 3.06 0 0 Z " fill="#BB0E13" transform="translate(93,57)"/>
<path d="M0 0 C0.66 0.33 1.32 0.66 2 1 C1.67 1.66 1.34 2.32 1 3 C3.97 3 6.94 3 10 3 C10 3.66 10 4.32 10 5 C7.03 5 4.06 5 1 5 C1.99 6.485 1.99 6.485 3 8 C6.465 7.505 6.465 7.505 10 7 C9.34 8.32 8.68 9.64 8 11 C2.63157895 11.35789474 2.63157895 11.35789474 0.125 9.9375 C-1.59944167 6.96762823 -1.24840147 4.35341985 -1 1 C-0.67 0.67 -0.34 0.34 0 0 Z " fill="#FACBC9" transform="translate(30,93)"/>
<path d="M0 0 C1.99954746 -0.04254356 4.00041636 -0.04080783 6 0 C7 1 7 1 7.09765625 3.06640625 C7.08605469 3.89011719 7.07445313 4.71382813 7.0625 5.5625 C7.05347656 6.38878906 7.04445313 7.21507813 7.03515625 8.06640625 C7.01775391 9.02353516 7.01775391 9.02353516 7 10 C4.34701431 9.45186246 3.21228482 9.21228482 1.25 7.25 C-0.21079991 4.62056017 -0.24687966 2.9625559 0 0 Z " fill="#CA0307" transform="translate(62,61)"/>
<path d="M0 0 C-0.33 0.66 -0.66 1.32 -1 2 C-3.95857409 2.05379226 -6.91617721 2.09357093 -9.875 2.125 C-11.13763672 2.15013672 -11.13763672 2.15013672 -12.42578125 2.17578125 C-13.23144531 2.18222656 -14.03710938 2.18867188 -14.8671875 2.1953125 C-15.61081543 2.20578613 -16.35444336 2.21625977 -17.12060547 2.22705078 C-19 2 -19 2 -21 0 C-14.44732812 -3.27633594 -6.73884007 -1.96956437 0 0 Z " fill="#940A0C" transform="translate(225,10)"/>
<path d="M0 0 C2.7072683 2.49901689 4.82730548 5.12601554 6.9375 8.125 C9.28062736 11.33264 10.99922505 13.05864119 15 14 C15 14.66 15 15.32 15 16 C8.07 16 1.14 16 -6 16 C-5.34 15.34 -4.68 14.68 -4 14 C-0.9609375 14.0234375 -0.9609375 14.0234375 2.625 14.375 C3.81351563 14.48585938 5.00203125 14.59671875 6.2265625 14.7109375 C7.14179688 14.80632812 8.05703125 14.90171875 9 15 C8.566875 14.52949219 8.13375 14.05898437 7.6875 13.57421875 C7.130625 12.95160156 6.57375 12.32898438 6 11.6875 C5.443125 11.07261719 4.88625 10.45773438 4.3125 9.82421875 C3 8 3 8 3 5 C2.34 5 1.68 5 1 5 C0.67 3.35 0.34 1.7 0 0 Z " fill="#8F191F" transform="translate(159,60)"/>
<path d="M0 0 C1.43655854 -0.08131463 2.8744483 -0.13933559 4.3125 -0.1875 C5.51326172 -0.23970703 5.51326172 -0.23970703 6.73828125 -0.29296875 C9 0 9 0 10.8125 1.375 C12 3 12 3 11.6875 5.1875 C11.3471875 6.0846875 11.3471875 6.0846875 11 7 C11 6.34 11 5.68 11 5 C10.443125 5.495 9.88625 5.99 9.3125 6.5 C6.61837017 8.24754367 5.14624993 8.26218749 2 8 C1.67 7.34 1.34 6.68 1 6 C2.134375 5.71125 3.26875 5.4225 4.4375 5.125 C5.613125 4.75375 6.78875 4.3825 8 4 C8.33 3.34 8.66 2.68 9 2 C8.01 2.66 7.02 3.32 6 4 C3.3125 3.625 3.3125 3.625 1 3 C0.67 2.01 0.34 1.02 0 0 Z " fill="#9D090E" transform="translate(31,98)"/>
<path d="M0 0 C16.10313901 -1.22690583 16.10313901 -1.22690583 20.75390625 1.78125 C22.44146892 3.78236816 23.80591849 5.67413688 25 8 C24.67 8.66 24.34 9.32 24 10 C23.68289062 9.50628906 23.36578125 9.01257812 23.0390625 8.50390625 C20.76822096 5.38620391 19.20437799 3.31543233 15.375 2.3125 C12.90102197 2.08759291 10.48324387 1.96564682 8 2 C9.32 2.99 10.64 3.98 12 5 C11.67 5.66 11.34 6.32 11 7 C10.113125 6.360625 9.22625 5.72125 8.3125 5.0625 C5.30788572 3.19170243 3.4489629 2.40576034 0 2 C0 1.34 0 0.68 0 0 Z " fill="#881419" transform="translate(8,10)"/>
<path d="M0 0 C2.31 0.66 4.62 1.32 7 2 C-0.5 7 -0.5 7 -3 7 C-3.66 8.32 -4.32 9.64 -5 11 C-6.5 9.625 -6.5 9.625 -8 8 C-8 7.34 -8 6.68 -8 6 C-6.25 4.74609375 -6.25 4.74609375 -4 3.4375 C-2.65232501 2.64901654 -1.31473966 1.8422551 0 1 C0 0.67 0 0.34 0 0 Z " fill="#A4161B" transform="translate(202,10)"/>
<path d="M0 0 C3.2549815 4.06872688 5.53963766 7.51862573 8 12 C7.4225 11.79375 6.845 11.5875 6.25 11.375 C3.60482214 10.70744585 3.60482214 10.70744585 0 13 C0 8.71 0 4.42 0 0 Z " fill="#A30C10" transform="translate(16,92)"/>
<path d="M0 0 C1.67542976 0.28604898 3.34385343 0.61781233 5 1 C5 3.31 5 5.62 5 8 C3.34385343 8.38218767 1.67542976 8.71395102 0 9 C-1 8 -1 8 -1.125 4.5 C-1 1 -1 1 0 0 Z " fill="#8D1E21" transform="translate(69,93)"/>
<path d="M0 0 C0.66 0 1.32 0 2 0 C2.66 1.98 3.32 3.96 4 6 C4.99 5.01 5.98 4.02 7 3 C7.66 3.66 8.32 4.32 9 5 C8.01 7.64 7.02 10.28 6 13 C4.125 12.4375 4.125 12.4375 2 11 C0.55760783 7.10554113 0 4.16477964 0 0 Z " fill="#EAB4AE" transform="translate(48,91)"/>
<path d="M0 0 C0.33 0 0.66 0 1 0 C1 3.3 1 6.6 1 10 C-2.3 10.33 -5.6 10.66 -9 11 C-8.67 9.68 -8.34 8.36 -8 7 C-6.02 6.67 -4.04 6.34 -2 6 C-1.34 4.02 -0.68 2.04 0 0 Z " fill="#BB0A0F" transform="translate(243,98)"/>
<path d="M0 0 C1.73360665 3.46721329 0.48361845 7.23852315 0 11 C3.3 11.66 6.6 12.32 10 13 C6.68629 15.20914 5.6553979 15.22481553 1.8125 15.125 C0.91144531 15.10695313 0.01039063 15.08890625 -0.91796875 15.0703125 C-1.60503906 15.04710938 -2.29210937 15.02390625 -3 15 C-3 13.68 -3 12.36 -3 11 C-2.34 11 -1.68 11 -1 11 C-1.01160156 10.28972656 -1.02320313 9.57945313 -1.03515625 8.84765625 C-1.04417969 7.92855469 -1.05320313 7.00945312 -1.0625 6.0625 C-1.07410156 5.14597656 -1.08570313 4.22945313 -1.09765625 3.28515625 C-1 1 -1 1 0 0 Z " fill="#BE0808" transform="translate(203,93)"/>
<path d="M0 0 C1.65 0.33 3.3 0.66 5 1 C5 3.31 5 5.62 5 8 C3.125 8.625 3.125 8.625 1 9 C0.34 8.34 -0.32 7.68 -1 7 C-0.625 3.375 -0.625 3.375 0 0 Z " fill="#8C191A" transform="translate(207,93)"/>
<path d="M0 0 C2.64 0 5.28 0 8 0 C8 2.31 8 4.62 8 7 C4.36576791 9.32590854 1.22911669 9.16265833 -3 9 C-3.33 8.34 -3.66 7.68 -4 7 C-2.72125 6.9175 -1.4425 6.835 -0.125 6.75 C2.05333418 6.54130069 2.05333418 6.54130069 4 6 C5.5899433 4.07935207 5.5899433 4.07935207 6 2 C4.02 2 2.04 2 0 2 C0 1.34 0 0.68 0 0 Z " fill="#F9BABC" transform="translate(186,95)"/>
<path d="M0 0 C3.69230769 0.69230769 3.69230769 0.69230769 5 2 C5.1875 4.4375 5.1875 4.4375 5 7 C4.34 7.66 3.68 8.32 3 9 C0.875 8.625 0.875 8.625 -1 8 C-1.04241723 5.66705225 -1.04092937 3.33297433 -1 1 C-0.67 0.67 -0.34 0.34 0 0 Z " fill="#9A181B" transform="translate(234,93)"/>
<path d="M0 0 C0.125 2.875 0.125 2.875 0 6 C-0.66 6.66 -1.32 7.32 -2 8 C-2.99 8 -3.98 8 -5 8 C-6.35439668 5.29120665 -6.06501451 2.99066732 -6 0 C-3.50907189 -1.24546405 -2.58919267 -0.7767578 0 0 Z " fill="#9E1E1D" transform="translate(140,94)"/>
<path d="M0 0 C1.65 0 3.3 0 5 0 C5 0.99 5 1.98 5 3 C5.66 3 6.32 3 7 3 C7.33 2.01 7.66 1.02 8 0 C8.12375 0.639375 8.2475 1.27875 8.375 1.9375 C8.58125 2.618125 8.7875 3.29875 9 4 C9.66 4.33 10.32 4.66 11 5 C9.33333333 6.66666667 7.66666667 8.33333333 6 10 C4.02 6.7 2.04 3.4 0 0 Z " fill="#B20D12" transform="translate(139,43)"/>
<path d="M0 0 C1.5 1.1875 1.5 1.1875 3 3 C3.1875 5.6875 3.1875 5.6875 3 8 C3.66 8 4.32 8 5 8 C5.33 7.34 5.66 6.68 6 6 C6.66 7.65 7.32 9.3 8 11 C6.25 11.75 6.25 11.75 4 12 C1.01199372 9.8657098 0.11513473 8.4428259 -0.8125 4.875 C-1 2 -1 2 0 0 Z " fill="#CA0406" transform="translate(53,48)"/>
<path d="M0 0 C0.66 0 1.32 0 2 0 C4 3 4 3 3.8125 4.875 C2.82544914 7.45651762 1.48547668 9.67490606 0 12 C-0.66 11.67 -1.32 11.34 -2 11 C-1.67 10.34 -1.34 9.68 -1 9 C-4.63 9 -8.26 9 -12 9 C-12 7.02 -12 5.04 -12 3 C-11.67 3 -11.34 3 -11 3 C-11 4.65 -11 6.3 -11 8 C-9.58297487 7.85769192 -8.1663904 7.71099254 -6.75 7.5625 C-5.96109375 7.48128906 -5.1721875 7.40007812 -4.359375 7.31640625 C-2.17635361 7.02365007 -0.1226818 6.57935581 2 6 C1.34 4.02 0.68 2.04 0 0 Z " fill="#A52B2F" transform="translate(119,93)"/>
<path d="M0 0 C0.556875 0.391875 1.11375 0.78375 1.6875 1.1875 C1.3575 2.8375 1.0275 4.4875 0.6875 6.1875 C-1.9525 6.1875 -4.5925 6.1875 -7.3125 6.1875 C-7.3125 4.8675 -7.3125 3.5475 -7.3125 2.1875 C-3.29729087 -1.1585076 -3.29729087 -1.1585076 0 0 Z " fill="#B90F14" transform="translate(143.3125,101.8125)"/>
<path d="M0 0 C1.69141656 0.08963062 3.37959602 0.24577676 5.0625 0.4375 C6.44115234 0.59025391 6.44115234 0.59025391 7.84765625 0.74609375 C8.55792969 0.82988281 9.26820313 0.91367188 10 1 C10 2.98 10 4.96 10 7 C6.39451947 7 5.72228959 6.22732784 3 4 C2.2575 3.443125 1.515 2.88625 0.75 2.3125 C0.1725 1.879375 -0.405 1.44625 -1 1 C-0.67 0.67 -0.34 0.34 0 0 Z " fill="#A80D15" transform="translate(226,11)"/>
<path d="M0 0 C-0.33 0.99 -0.66 1.98 -1 3 C-7.27 3 -13.54 3 -20 3 C-20 2.34 -20 1.68 -20 1 C-17.22922802 0.83225597 -14.45839073 0.66576064 -11.6875 0.5 C-10.90181641 0.45230469 -10.11613281 0.40460938 -9.30664062 0.35546875 C-8.54931641 0.31035156 -7.79199219 0.26523438 -7.01171875 0.21875 C-6.31522217 0.17685547 -5.61872559 0.13496094 -4.90112305 0.09179688 C-3.26903034 0.01299029 -1.63399421 0 0 0 Z " fill="#CA040B" transform="translate(64,105)"/>
<path d="M0 0 C1.65 0.33 3.3 0.66 5 1 C5.33 1.99 5.66 2.98 6 4 C5.360625 4.103125 4.72125 4.20625 4.0625 4.3125 C3.381875 4.539375 2.70125 4.76625 2 5 C1.67 5.99 1.34 6.98 1 8 C1.99 8.33 2.98 8.66 4 9 C4 9.66 4 10.32 4 11 C2.35 10.67 0.7 10.34 -1 10 C-2.31223496 6.06329512 -1.24296256 3.87511856 0 0 Z " fill="#C40C0D" transform="translate(184,90)"/>
<path d="M0 0 C1.22589844 0.01353516 1.22589844 0.01353516 2.4765625 0.02734375 C3.41628906 0.04474609 3.41628906 0.04474609 4.375 0.0625 C4.375 1.3825 4.375 2.7025 4.375 4.0625 C0.415 4.0625 -3.545 4.0625 -7.625 4.0625 C-7.295 3.0725 -6.965 2.0825 -6.625 1.0625 C-4.21954362 -0.14022819 -2.67503047 -0.03821472 0 0 Z " fill="#CE0403" transform="translate(98.625,85.9375)"/>
<path d="M0 0 C0.66 0 1.32 0 2 0 C2 0.99 2 1.98 2 3 C2.66 3 3.32 3 4 3 C4 3.66 4 4.32 4 5 C3.34 5 2.68 5 2 5 C2 7.97 2 10.94 2 14 C2.66 14 3.32 14 4 14 C4 14.66 4 15.32 4 16 C2.68 15.67 1.36 15.34 0 15 C-0.19517554 13.06325815 -0.38087873 11.12555991 -0.5625 9.1875 C-0.66691406 8.10855469 -0.77132812 7.02960938 -0.87890625 5.91796875 C-1 3 -1 3 0 0 Z " fill="#FDCFCC" transform="translate(43,88)"/>
<path d="M0 0 C3.96 0 7.92 0 12 0 C12 0.99 12 1.98 12 3 C9.50494038 5.49505962 8.32671112 5.35948376 4.875 5.625 C3.96492188 5.69976562 3.05484375 5.77453125 2.1171875 5.8515625 C1.06917969 5.92503906 1.06917969 5.92503906 0 6 C1.32 5.01 2.64 4.02 4 3 C2.68 2.34 1.36 1.68 0 1 C0 0.67 0 0.34 0 0 Z " fill="#C00A0B" transform="translate(102,70)"/>
<path d="M0 0 C0.99 0 1.98 0 3 0 C5.03684712 4.07369424 5.0257259 6.58937864 4 11 C3.67 10.34 3.34 9.68 3 9 C2.01 9 1.02 9 0 9 C0 6.03 0 3.06 0 0 Z " fill="#95231F" transform="translate(45,93)"/>
<path d="M0 0 C3.96 0 7.92 0 12 0 C12 0.33 12 0.66 12 1 C7.545 1.495 7.545 1.495 3 2 C3 7.61 3 13.22 3 19 C2.01 18.67 1.02 18.34 0 18 C0.66 18 1.32 18 2 18 C2 12.72 2 7.44 2 2 C1.01 2.33 0.02 2.66 -1 3 C-0.67 2.01 -0.34 1.02 0 0 Z " fill="#C13B3C" transform="translate(24,85)"/>
<path d="M0 0 C0.99 0.495 0.99 0.495 2 1 C1.938125 2.258125 1.87625 3.51625 1.8125 4.8125 C1.76367078 8.16958979 1.76367078 8.16958979 3.5 11 C3.995 11.33 4.49 11.66 5 12 C4.34 12 3.68 12 3 12 C3 13.98 3 15.96 3 18 C2.01 17.67 1.02 17.34 0 17 C0 11.39 0 5.78 0 0 Z " fill="#E8ABAD" transform="translate(230,91)"/>
<path d="M0 0 C2.31 0.33 4.62 0.66 7 1 C7.33 2.32 7.66 3.64 8 5 C5.03 5 2.06 5 -1 5 C-0.67 3.35 -0.34 1.7 0 0 Z " fill="#FAC1C4" transform="translate(32,91)"/>
<path d="M0 0 C0.99 0.33 1.98 0.66 3 1 C2.67 4.3 2.34 7.6 2 11 C1.34 11 0.68 11 0 11 C-0.33 12.32 -0.66 13.64 -1 15 C-1.02685412 12.68756208 -1.04632841 10.3750373 -1.0625 8.0625 C-1.07410156 6.77472656 -1.08570313 5.48695312 -1.09765625 4.16015625 C-1 1 -1 1 0 0 Z " fill="#B20D17" transform="translate(200,93)"/>
<path d="M0 0 C2.04049422 1.2704964 4.05017465 2.59431196 6 4 C2.95373824 4.95837449 0.90786364 5.01658162 -2.1875 4.25 C-3.22970703 4.01023437 -3.22970703 4.01023437 -4.29296875 3.765625 C-4.85628906 3.51296875 -5.41960937 3.2603125 -6 3 C-6.33 2.01 -6.66 1.02 -7 0 C-4.21306667 -1.39346667 -2.97563827 -0.87916585 0 0 Z " fill="#BB0B14" transform="translate(202,70)"/>
<path d="M0 0 C0.99 0.33 1.98 0.66 3 1 C2.01 2.485 2.01 2.485 1 4 C0.49992206 7.45786015 0.49992206 7.45786015 1 11 C2.85420839 13.44098818 2.85420839 13.44098818 5 15 C2.03824877 14.38722388 0.61941217 13.74627478 -2 12 C-2.51171875 9.8359375 -2.51171875 9.8359375 -2.6875 7.375 C-2.75324219 6.55773437 -2.81898438 5.74046875 -2.88671875 4.8984375 C-2.92410156 4.27195312 -2.96148437 3.64546875 -3 3 C-2.01 3 -1.02 3 0 3 C0 2.01 0 1.02 0 0 Z " fill="#8A1512" transform="translate(144,90)"/>
<path d="M0 0 C2.64752004 2.57784846 4.94432065 4.91648098 7 8 C8.32 7.67 9.64 7.34 11 7 C11 9.64 11 12.28 11 15 C10.34 15 9.68 15 9 15 C9 13.68 9 12.36 9 11 C8.38125 10.9175 7.7625 10.835 7.125 10.75 C5 10 5 10 3.875 8 C3.58625 7.34 3.2975 6.68 3 6 C2.34 5.67 1.68 5.34 1 5 C0.375 2.4375 0.375 2.4375 0 0 Z " fill="#9A131C" transform="translate(143,37)"/>
<path d="M0 0 C0.33 0 0.66 0 1 0 C1 5.28 1 10.56 1 16 C0.67 16 0.34 16 0 16 C-0.33 13.69 -0.66 11.38 -1 9 C-1.66 9 -2.32 9 -3 9 C-3.66 7.35 -4.32 5.7 -5 4 C-4.0409375 3.8453125 -4.0409375 3.8453125 -3.0625 3.6875 C-2.381875 3.460625 -1.70125 3.23375 -1 3 C-0.67 2.01 -0.34 1.02 0 0 Z " fill="#A7343A" transform="translate(131,92)"/>
<path d="M0 0 C1.98 0 3.96 0 6 0 C6 0.66 6 1.32 6 2 C5.01 2.33 4.02 2.66 3 3 C2.67 6.3 2.34 9.6 2 13 C1.34 13 0.68 13 0 13 C0 8.71 0 4.42 0 0 Z " fill="#FCC8CD" transform="translate(79,91)"/>
<path d="M0 0 C0.99 0.33 1.98 0.66 3 1 C1.515 2.485 1.515 2.485 0 4 C1.19899698 7.0831351 2.47700477 10.06279492 4 13 C2.125 12.75 2.125 12.75 0 12 C-1.125 10.0625 -1.125 10.0625 -2 8 C-2.66 7.34 -3.32 6.68 -4 6 C-3.34 6 -2.68 6 -2 6 C-2.33 5.01 -2.66 4.02 -3 3 C-2.01 2.01 -1.02 1.02 0 0 Z " fill="#F4B9B7" transform="translate(93,91)"/>
<path d="M0 0 C0.66 0.33 1.32 0.66 2 1 C2 1.66 2 2.32 2 3 C-0.40545638 4.20272819 -1.94996953 4.10071472 -4.625 4.0625 C-5.85089844 4.04896484 -5.85089844 4.04896484 -7.1015625 4.03515625 C-8.04128906 4.01775391 -8.04128906 4.01775391 -9 4 C-8.67 4.99 -8.34 5.98 -8 7 C-8.99 7 -9.98 7 -11 7 C-11 5.35 -11 3.7 -11 2 C-7.37 2 -3.74 2 0 2 C0 1.34 0 0.68 0 0 Z " fill="#9F1417" transform="translate(118,87)"/>
<path d="M0 0 C-0.33 2.31 -0.66 4.62 -1 7 C-3.31 7 -5.62 7 -8 7 C-8 6.34 -8 5.68 -8 5 C-2.52380952 0 -2.52380952 0 0 0 Z " fill="#9E1120" transform="translate(136,69)"/>
<path d="M0 0 C0.66 0 1.32 0 2 0 C2.62422779 6.68815484 3.12920865 13.28115045 3 20 C1.10786631 17.61426621 -0.02391783 15.92824652 -1 13 C-0.34 13 0.32 13 1 13 C0.67 8.71 0.34 4.42 0 0 Z " fill="#82171F" transform="translate(235,9)"/>
<path d="M0 0 C0.66 0.33 1.32 0.66 2 1 C1.67 2.32 1.34 3.64 1 5 C-0.98 5.33 -2.96 5.66 -5 6 C-5.33 6.99 -5.66 7.98 -6 9 C-3.36 9 -0.72 9 2 9 C2 9.33 2 9.66 2 10 C-0.97 10 -3.94 10 -7 10 C-7 7.69 -7 5.38 -7 3 C-6.21625 3.061875 -5.4325 3.12375 -4.625 3.1875 C-3.75875 3.125625 -2.8925 3.06375 -2 3 C-1.34 2.01 -0.68 1.02 0 0 Z " fill="#991519" transform="translate(240,100)"/>
<path d="M0 0 C1.98 0 3.96 0 6 0 C6 0.66 6 1.32 6 2 C5.01 2.33 4.02 2.66 3 3 C2.67 6.3 2.34 9.6 2 13 C1.34 13 0.68 13 0 13 C0 8.71 0 4.42 0 0 Z " fill="#FDC7C3" transform="translate(197,91)"/>
<path d="M0 0 C1.98 0 3.96 0 6 0 C7.61949011 2.57213134 8.04408751 3.67669159 7.625 6.75 C7.41875 7.4925 7.2125 8.235 7 9 C6.67 9 6.34 9 6 9 C5.67 7.02 5.34 5.04 5 3 C3.68 3 2.36 3 1 3 C0.67 4.65 0.34 6.3 0 8 C-1.125 6.25 -1.125 6.25 -2 4 C-1.125 1.75 -1.125 1.75 0 0 Z " fill="#F2BEBA" transform="translate(68,91)"/>
<path d="M0 0 C0.33 0 0.66 0 1 0 C0.9175 1.2375 0.835 2.475 0.75 3.75 C0.7262052 7.10506698 0.80358323 7.75447904 3 10.5 C3.66 10.995 4.32 11.49 5 12 C2.69 12 0.38 12 -2 12 C-1.67 9.69 -1.34 7.38 -1 5 C-1.66 4.67 -2.32 4.34 -3 4 C-2.02727325 2.64664105 -1.0260734 1.31337396 0 0 Z " fill="#891F24" transform="translate(137,64)"/>
<path d="M0 0 C3 1 3 1 4 2.9375 C4.33 3.618125 4.66 4.29875 5 5 C5.99 5.66 6.98 6.32 8 7 C4.37 7 0.74 7 -3 7 C-2.01 6.67 -1.02 6.34 0 6 C0 4.02 0 2.04 0 0 Z " fill="#9D0F16" transform="translate(89,98)"/>
<path d="M0 0 C2.64 0 5.28 0 8 0 C8 0.66 8 1.32 8 2 C6.35 2 4.7 2 3 2 C3 2.66 3 3.32 3 4 C5.31 4 7.62 4 10 4 C10 4.33 10 4.66 10 5 C6.7 5 3.4 5 0 5 C0 3.35 0 1.7 0 0 Z " fill="#9C0604" transform="translate(108,96)"/>
<path d="M0 0 C1.5 1.1875 1.5 1.1875 3 3 C3.1875 5.6875 3.1875 5.6875 3 8 C1.35 8 -0.3 8 -2 8 C-1.125 1.125 -1.125 1.125 0 0 Z " fill="#CA0308" transform="translate(116,38)"/>
<path d="M0 0 C0.33 0.99 0.66 1.98 1 3 C-3.69927925 5.4964921 -6.92779602 4.91465973 -12 4 C-12.66 3.67 -13.32 3.34 -14 3 C-13.67 2.34 -13.34 1.68 -13 1 C-12.34 1.33 -11.68 1.66 -11 2 C-6.76028942 2.23553948 -3.63821698 2.32845886 0 0 Z " fill="#A51214" transform="translate(194,101)"/>
<path d="M0 0 C1.875 0.3125 1.875 0.3125 4 1 C6.62745688 4.94118532 6.31098196 7.25072647 5.5 11.8125 C5.335 12.534375 5.17 13.25625 5 14 C3.4375 12.8125 3.4375 12.8125 2 11 C2.375 8.5625 2.375 8.5625 3 6 C2.57049648 2.99347539 2.19963566 2.19963566 0 0 Z " fill="#AE100E" transform="translate(153,54)"/>
<path d="M0 0 C1.77503906 0.03480469 1.77503906 0.03480469 3.5859375 0.0703125 C5.36871094 0.09738281 5.36871094 0.09738281 7.1875 0.125 C8.10273438 0.14820312 9.01796875 0.17140625 9.9609375 0.1953125 C9.9609375 0.8553125 9.9609375 1.5153125 9.9609375 2.1953125 C7.6509375 2.8553125 5.3409375 3.5153125 2.9609375 4.1953125 C2.6309375 3.8653125 2.3009375 3.5353125 1.9609375 3.1953125 C-0.36724214 2.82770519 -2.700901 2.49289669 -5.0390625 2.1953125 C-3.0390625 0.1953125 -3.0390625 0.1953125 0 0 Z " fill="#AC100F" transform="translate(210.0390625,88.8046875)"/>
<path d="M0 0 C-0.99 0.495 -0.99 0.495 -2 1 C-2 1.66 -2 2.32 -2 3 C-1.34 3.33 -0.68 3.66 0 4 C-1.093125 3.979375 -2.18625 3.95875 -3.3125 3.9375 C-6.94384191 3.81455548 -6.94384191 3.81455548 -10 5 C-10.33 4.01 -10.66 3.02 -11 2 C-7.17679443 0.57741188 -4.08718695 -0.24042276 0 0 Z " fill="#8D1A20" transform="translate(108,30)"/>
<path d="M0 0 C2.76223278 2.76223278 2.57856291 5.20706617 3 9 C1.68 9 0.36 9 -1 9 C-2.0326802 6.21176345 -2.04509293 5.1322726 -1.0625 2.25 C-0.711875 1.5075 -0.36125 0.765 0 0 Z " fill="#A51A20" transform="translate(56,96)"/>
<path d="M0 0 C0.99 0.99 1.98 1.98 3 3 C2.85546875 6.35546875 2.85546875 6.35546875 2.1875 10.1875 C1.97480469 11.45980469 1.76210937 12.73210937 1.54296875 14.04296875 C1.36378906 15.01878906 1.18460938 15.99460937 1 17 C0.67 17 0.34 17 0 17 C0 11.39 0 5.78 0 0 Z " fill="#FCE4DF" transform="translate(132,91)"/>
<path d="M0 0 C0.66 0.33 1.32 0.66 2 1 C1.67 1.66 1.34 2.32 1 3 C2.65 3 4.3 3 6 3 C5.01 3.33 4.02 3.66 3 4 C1.79117904 6.00016466 1.79117904 6.00016466 1 8 C-0.65 6.35 -2.3 4.7 -4 3 C-3.01 2.67 -2.02 2.34 -1 2 C-0.67 1.34 -0.34 0.68 0 0 Z " fill="#A70F12" transform="translate(124,87)"/>
<path d="M0 0 C0 1.65 0 3.3 0 5 C-3.71599191 5.20086443 -4.77208445 5.1519437 -8 3 C-7.67 2.34 -7.34 1.68 -7 1 C-2.2 0 -2.2 0 0 0 Z " fill="#BE0A10" transform="translate(229,104)"/>
<path d="M0 0 C0.33 0 0.66 0 1 0 C1 3.63 1 7.26 1 11 C-0.65 11.33 -2.3 11.66 -4 12 C-3.71788123 10.3733152 -3.42397625 8.74867104 -3.125 7.125 C-2.96257812 6.22007813 -2.80015625 5.31515625 -2.6328125 4.3828125 C-2 2 -2 2 0 0 Z " fill="#A52D35" transform="translate(78,92)"/>
<path d="M0 0 C0 0.33 0 0.66 0 1 C-1.98 1.66 -3.96 2.32 -6 3 C-6.33 5.31 -6.66 7.62 -7 10 C-7.99 9.67 -8.98 9.34 -10 9 C-9.47731534 6.23723823 -8.89130413 3.6739124 -8 1 C-5.29120665 -0.35439668 -2.99066732 -0.06501451 0 0 Z " fill="#8C2526" transform="translate(73,90)"/>
<path d="M0 0 C2.31 0.33 4.62 0.66 7 1 C5.68 1.33 4.36 1.66 3 2 C2.67 3.98 2.34 5.96 2 8 C1.34 7.67 0.68 7.34 0 7 C0 4.69 0 2.38 0 0 Z " fill="#BA1017" transform="translate(9,85)"/>
<path d="M0 0 C2 1.3125 2 1.3125 4 3 C4 3.99 4 4.98 4 6 C1.69 5.67 -0.62 5.34 -3 5 C-1.125 1.125 -1.125 1.125 0 0 Z " fill="#A9181C" transform="translate(124,100)"/>
<path d="M0 0 C0.99 0 1.98 0 3 0 C2.67 3.96 2.34 7.92 2 12 C1.34 12 0.68 12 0 12 C0 8.04 0 4.08 0 0 Z " fill="#FDD8D7" transform="translate(158,92)"/>
<path d="M0 0 C0.33 0.99 0.66 1.98 1 3 C-0.79008467 3.22151549 -2.58218162 3.42682213 -4.375 3.625 C-5.37273437 3.74101562 -6.37046875 3.85703125 -7.3984375 3.9765625 C-8.25695312 3.98429688 -9.11546875 3.99203125 -10 4 C-10.66 3.34 -11.32 2.68 -12 2 C-9.56612247 0.78306124 -7.58161154 0.68040104 -4.875 0.4375 C-3.96492187 0.35371094 -3.05484375 0.26992187 -2.1171875 0.18359375 C-1.06917969 0.09271484 -1.06917969 0.09271484 0 0 Z " fill="#9E1016" transform="translate(216,8)"/>
<path d="M0 0 C1.65 0.33 3.3 0.66 5 1 C5 1.99 5 2.98 5 4 C2.36 4 -0.28 4 -3 4 C-3 3.01 -3 2.02 -3 1 C-2.01 1.33 -1.02 1.66 0 2 C0 1.34 0 0.68 0 0 Z " fill="#B31818" transform="translate(47,102)"/>
<path d="M0 0 C2.475 0.99 2.475 0.99 5 2 C4 5 4 5 2 6 C2 7.98 2 9.96 2 12 C1.01 12.495 1.01 12.495 0 13 C0 10.03 0 7.06 0 4 C0.66 4 1.32 4 2 4 C2 3.34 2 2.68 2 2 C1.34 2 0.68 2 0 2 C0 1.34 0 0.68 0 0 Z " fill="#9B1316" transform="translate(168,89)"/>
<path d="M0 0 C0.66 0 1.32 0 2 0 C2 0.99 2 1.98 2 3 C2.66 3 3.32 3 4 3 C4 3.66 4 4.32 4 5 C3.34 5 2.68 5 2 5 C1.67 5.66 1.34 6.32 1 7 C0.67 6.34 0.34 5.68 0 5 C-1.65 5 -3.3 5 -5 5 C-5 4.34 -5 3.68 -5 3 C-3.35 3 -1.7 3 0 3 C0 2.01 0 1.02 0 0 Z " fill="#FBC6C5" transform="translate(166,88)"/>
<path d="M0 0 C2.64 0 5.28 0 8 0 C7.34 1.32 6.68 2.64 6 4 C4.35 3.67 2.7 3.34 1 3 C0.67 2.01 0.34 1.02 0 0 Z " fill="#861521" transform="translate(146,98)"/>
<path d="M0 0 C0.66 0.33 1.32 0.66 2 1 C2.89093449 4.64473199 3.23666047 7.42742531 2 11 C0.68 10.67 -0.64 10.34 -2 10 C-1.34 10 -0.68 10 0 10 C0 6.7 0 3.4 0 0 Z " fill="#A01F20" transform="translate(81,94)"/>
<path d="M0 0 C0.66 0.33 1.32 0.66 2 1 C1.67 3.97 1.34 6.94 1 10 C-0.32 8.35 -1.64 6.7 -3 5 C-1.125 1.125 -1.125 1.125 0 0 Z " fill="#A41A1A" transform="translate(95,92)"/>
<path d="M0 0 C2 1 2 1 2.8515625 3.50390625 C3.10679688 4.51324219 3.36203125 5.52257812 3.625 6.5625 C3.88539062 7.57441406 4.14578125 8.58632812 4.4140625 9.62890625 C4.60742188 10.41136719 4.80078125 11.19382812 5 12 C4.34 12 3.68 12 3 12 C1.74335022 9.09399739 1 7.20395416 1 4 C0.34 4 -0.32 4 -1 4 C-0.67 2.68 -0.34 1.36 0 0 Z " fill="#FAD5D0" transform="translate(56,91)"/>
<path d="M0 0 C2.31 0 4.62 0 7 0 C6.34 1.65 5.68 3.3 5 5 C3.68 4.67 2.36 4.34 1 4 C0.67 2.68 0.34 1.36 0 0 Z " fill="#C6090D" transform="translate(17,85)"/>
<path d="M0 0 C2.97 0 5.94 0 9 0 C7.75453595 3.73639216 6.36595047 4.18756513 3 6 C3 4.68 3 3.36 3 2 C2.01 1.34 1.02 0.68 0 0 Z " fill="#9B0F11" transform="translate(176,84)"/>
<path d="M0 0 C0.33 0 0.66 0 1 0 C1 2.97 1 5.94 1 9 C-0.65 9 -2.3 9 -4 9 C-4 8.34 -4 7.68 -4 7 C-3.34 6.67 -2.68 6.34 -2 6 C-1.27306096 4.02111039 -0.60183749 2.02045442 0 0 Z " fill="#C70707" transform="translate(243,98)"/>
<path d="M0 0 C0.66 0.66 1.32 1.32 2 2 C5.59679066 1.67673447 5.59679066 1.67673447 9 1 C8.67 1.99 8.34 2.98 8 4 C5.69 4.33 3.38 4.66 1 5 C0.34 4.01 -0.32 3.02 -1 2 C-0.67 1.34 -0.34 0.68 0 0 Z " fill="#FAC4BE" transform="translate(146,99)"/>
<path d="M0 0 C1.65 0 3.3 0 5 0 C5.33 1.98 5.66 3.96 6 6 C5.01 6 4.02 6 3 6 C3 5.01 3 4.02 3 3 C2.01 2.67 1.02 2.34 0 2 C0 1.34 0 0.68 0 0 Z " fill="#CA0704" transform="translate(151,56)"/>
<path d="M0 0 C1.32 0.33 2.64 0.66 4 1 C4 1.66 4 2.32 4 3 C-0.455 3.495 -0.455 3.495 -5 4 C-5 3.34 -5 2.68 -5 2 C-3.35 2 -1.7 2 0 2 C0 1.34 0 0.68 0 0 Z " fill="#C50705" transform="translate(116,96)"/>
<path d="M0 0 C0.66 0.66 1.32 1.32 2 2 C1.625 3.9375 1.625 3.9375 1 6 C1 6.99 1 7.98 1 9 C0.01 8.34 -0.98 7.68 -2 7 C-2.3125 4.5 -2.3125 4.5 -2 2 C-1.34 1.34 -0.68 0.68 0 0 Z " fill="#CF0A0E" transform="translate(46,38)"/>
<path d="M0 0 C2.64 0.33 5.28 0.66 8 1 C7.01 2.485 7.01 2.485 6 4 C4.35 3.67 2.7 3.34 1 3 C0.67 2.01 0.34 1.02 0 0 Z " fill="#8F1F22" transform="translate(31,98)"/>
<path d="M0 0 C0.66 0.33 1.32 0.66 2 1 C1.835 2.11375 1.67 3.2275 1.5 4.375 C0.9544542 7.72032033 0.9544542 7.72032033 1 10 C0.34 10 -0.32 10 -1 10 C-2.38125018 7.23749964 -2.19079306 5.05268901 -2 2 C-1.34 1.34 -0.68 0.68 0 0 Z " fill="#FAD8D7" transform="translate(206,92)"/>
<path d="M0 0 C2.97 0.495 2.97 0.495 6 1 C6.33 3.31 6.66 5.62 7 8 C5 5 5 5 4 3 C1.47266765 2.34444881 1.47266765 2.34444881 -1 2 C-0.67 1.34 -0.34 0.68 0 0 Z " fill="#F6CAC8" transform="translate(135,91)"/>
<path d="M0 0 C0 0.66 0 1.32 0 2 C0.66 2 1.32 2 2 2 C2 3.65 2 5.3 2 7 C1.46375 6.360625 0.9275 5.72125 0.375 5.0625 C-2.44367193 2.61470596 -4.33860732 2.33285388 -8 2 C-4.91190305 0.23537317 -3.76687864 0 0 0 Z " fill="#B12D33" transform="translate(192,85)"/>
<path d="M0 0 C2 1.375 2 1.375 4 3 C4 3.66 4 4.32 4 5 C0.7 5 -2.6 5 -6 5 C-6 4.34 -6 3.68 -6 3 C-4.02 3 -2.04 3 0 3 C0 2.01 0 1.02 0 0 Z " fill="#B70C14" transform="translate(164,70)"/>
<path d="M0 0 C0.66 0.33 1.32 0.66 2 1 C2 3.31 2 5.62 2 8 C1.01 8 0.02 8 -1 8 C-1.66 6.02 -2.32 4.04 -3 2 C-2.01 2 -1.02 2 0 2 C0 1.34 0 0.68 0 0 Z " fill="#B91518" transform="translate(91,38)"/>
<path d="M0 0 C4.62 0 9.24 0 14 0 C14 0.66 14 1.32 14 2 C9.20699867 3.39151652 4.84864218 2.68662689 0 2 C0 1.34 0 0.68 0 0 Z " fill="#812027" transform="translate(155,31)"/>
<path d="M0 0 C2.35171131 0.59861742 4.6859378 1.26924352 7 2 C7.33 2.66 7.66 3.32 8 4 C5.36 4 2.72 4 0 4 C0 2.68 0 1.36 0 0 Z " fill="#CB060E" transform="translate(144,104)"/>
<path d="M0 0 C0.33 0.99 0.66 1.98 1 3 C-1.31 3 -3.62 3 -6 3 C-6.33 2.34 -6.66 1.68 -7 1 C-4.53721199 -0.231394 -2.7204945 -0.07159196 0 0 Z " fill="#CD030B" transform="translate(79,105)"/>
<path d="M0 0 C0.99 0.33 1.98 0.66 3 1 C2.67 2.98 2.34 4.96 2 7 C1.01 6.67 0.02 6.34 -1 6 C-0.67 4.02 -0.34 2.04 0 0 Z " fill="#BA0E16" transform="translate(70,94)"/>
<path d="M0 0 C0.99 0 1.98 0 3 0 C3 2.64 3 5.28 3 8 C2.67 7.34 2.34 6.68 2 6 C1.34 6 0.68 6 0 6 C0 4.02 0 2.04 0 0 Z " fill="#941E28" transform="translate(40,93)"/>
<path d="M0 0 C3.3 0.33 6.6 0.66 10 1 C9.67 1.66 9.34 2.32 9 3 C8.236875 2.95875 7.47375 2.9175 6.6875 2.875 C3.77281584 2.77919176 3.77281584 2.77919176 1 5 C0.67 3.35 0.34 1.7 0 0 Z " fill="#A91D1E" transform="translate(28,89)"/>
<path d="M0 0 C2.40072955 2.88087546 4.47291037 5.56404834 6 9 C4 9 4 9 1.3125 6.75 C-1 4 -1 4 -0.8125 1.6875 C-0.4103125 0.8521875 -0.4103125 0.8521875 0 0 Z " fill="#A11B23" transform="translate(18,95)"/>
<path d="M0 0 C2.375 -0.1875 2.375 -0.1875 5 0 C7 3 7 3 6.625 6.1875 C6.41875 7.115625 6.2125 8.04375 6 9 C5.67 9 5.34 9 5 9 C4.9175 8.05125 4.835 7.1025 4.75 6.125 C4.34925077 2.89538209 4.34925077 2.89538209 1.9375 1.625 C1.298125 1.41875 0.65875 1.2125 0 1 C0 0.67 0 0.34 0 0 Z " fill="#EFADB0" transform="translate(207,91)"/>
<path d="M0 0 C2.475 0.99 2.475 0.99 5 2 C3.68 2.99 2.36 3.98 1 5 C1.33 5.66 1.66 6.32 2 7 C1.01 7 0.02 7 -1 7 C-1.625 5.1875 -1.625 5.1875 -2 3 C-1.34 2.01 -0.68 1.02 0 0 Z " fill="#C40408" transform="translate(97,67)"/>
<path d="M0 0 C1.32 0 2.64 0 4 0 C4.33 1.32 4.66 2.64 5 4 C3.68 4.33 2.36 4.66 1 5 C0.67 3.35 0.34 1.7 0 0 Z " fill="#C9060A" transform="translate(136,33)"/>
<path d="M0 0 C1.32 0 2.64 0 4 0 C3.67 1.65 3.34 3.3 3 5 C1.68 4.67 0.36 4.34 -1 4 C-0.67 2.68 -0.34 1.36 0 0 Z " fill="#B90D10" transform="translate(67,11)"/>
<path d="M0 0 C0.33 0 0.66 0 1 0 C1.309375 1.11375 1.61875 2.2275 1.9375 3.375 C2.82326483 6.7945155 2.82326483 6.7945155 4 9 C2.35 9 0.7 9 -1 9 C-0.67 6.03 -0.34 3.06 0 0 Z " fill="#9C1822" transform="translate(28,95)"/>
<path d="M0 0 C0.66 0.33 1.32 0.66 2 1 C2 2.65 2 4.3 2 6 C1.01 6.33 0.02 6.66 -1 7 C-1.04254356 5.00045254 -1.04080783 2.99958364 -1 1 C-0.67 0.67 -0.34 0.34 0 0 Z " fill="#B91014" transform="translate(209,94)"/>
<path d="M0 0 C1.65 0 3.3 0 5 0 C5.33 0.99 5.66 1.98 6 3 C3.69 3 1.38 3 -1 3 C-0.67 2.01 -0.34 1.02 0 0 Z " fill="#801E2A" transform="translate(147,93)"/>
<path d="M0 0 C0 0.66 0 1.32 0 2 C-2.31 2 -4.62 2 -7 2 C-7 1.34 -7 0.68 -7 0 C-4.3333581 -1.33332095 -2.83319697 -0.67102033 0 0 Z " fill="#802127" transform="translate(38,94)"/>
<path d="M0 0 C1.65 0.99 3.3 1.98 5 3 C5.33 2.34 5.66 1.68 6 1 C6 1.99 6 2.98 6 4 C3.03 4 0.06 4 -3 4 C-2.01 2.68 -1.02 1.36 0 0 Z " fill="#9A0F15" transform="translate(20,71)"/>
<path d="M0 0 C0 0.66 0 1.32 0 2 C0.66 2.33 1.32 2.66 2 3 C1.67 3.66 1.34 4.32 1 5 C-0.9375 4.6875 -0.9375 4.6875 -3 4 C-3.33 3.01 -3.66 2.02 -4 1 C-2 0 -2 0 0 0 Z " fill="#BA1513" transform="translate(24,69)"/>
<path d="M0 0 C1.8125 0.1875 1.8125 0.1875 4 1 C5.8125 3.4375 5.8125 3.4375 7 6 C6.67 6.66 6.34 7.32 6 8 C4.9970458 6.85675161 3.99770973 5.71032809 3 4.5625 C2.443125 3.92441406 1.88625 3.28632812 1.3125 2.62890625 C0 1 0 1 0 0 Z " fill="#951118" transform="translate(30,29)"/>
<path d="M0 0 C0.99 0 1.98 0 3 0 C2.67 2.97 2.34 5.94 2 9 C1.67 9 1.34 9 1 9 C1 7.02 1 5.04 1 3 C0.01 2.67 -0.98 2.34 -2 2 C-1.34 2 -0.68 2 0 2 C0 1.34 0 0.68 0 0 Z " fill="#B9040B" transform="translate(190,21)"/>
<path d="M0 0 C1.65 0 3.3 0 5 0 C4.67 1.65 4.34 3.3 4 5 C2 3.625 2 3.625 0 2 C0 1.34 0 0.68 0 0 Z " fill="#C5080D" transform="translate(231,14)"/>
<path d="M0 0 C0.33 1.32 0.66 2.64 1 4 C0.01 4.66 -0.98 5.32 -2 6 C-2.66 4.35 -3.32 2.7 -4 1 C-2 0 -2 0 0 0 Z " fill="#BD161F" transform="translate(198,15)"/>
<path d="M0 0 C0.33 0 0.66 0 1 0 C1 3.63 1 7.26 1 11 C0.01 10.01 -0.98 9.02 -2 8 C-1.67 7.01 -1.34 6.02 -1 5 C-0.65179959 3.33637583 -0.31595508 1.67004829 0 0 Z " fill="#871014" transform="translate(23,88)"/>
<path d="M0 0 C6.625 -0.25 6.625 -0.25 10 2 C9.01 2.66 8.02 3.32 7 4 C6.67 3.01 6.34 2.02 6 1 C4.35 1.33 2.7 1.66 1 2 C0.67 1.34 0.34 0.68 0 0 Z " fill="#9E2326" transform="translate(197,90)"/>
<path d="M0 0 C0.99 0.33 1.98 0.66 3 1 C2.54625 1.5775 2.0925 2.155 1.625 2.75 C0.15886484 4.7800333 -0.94857784 6.73539843 -2 9 C-2.33 7.02 -2.66 5.04 -3 3 C-2.01 3 -1.02 3 0 3 C0 2.01 0 1.02 0 0 Z " fill="#9B1F25" transform="translate(144,90)"/>
<path d="M0 0 C-4.75 3.875 -4.75 3.875 -7 5 C-7 3.35 -7 1.7 -7 0 C-3.98968256 -0.93423645 -3.13349732 -1.04449911 0 0 Z " fill="#8A0E0B" transform="translate(96,90)"/>
</svg>
