<?xml version="1.0" encoding="UTF-8"?>
<svg id="Layer_2" xmlns="http://www.w3.org/2000/svg" viewBox="0 0 159.52 137.73">
  <defs>
    <style>
      .cls-1 {
        fill: #fff;
      }
    </style>
  </defs>
  <g id="greyscale">
    <g id="Plane">
      <path class="cls-1" d="M90.66,9c33.06,0,59.87,26.8,59.87,59.87s-26.8,59.87-59.87,59.87-59.87-26.8-59.87-59.87S57.59,9,90.66,9M90.66,0C52.68,0,21.79,30.89,21.79,68.87s30.89,68.87,68.87,68.87,68.87-30.89,68.87-68.87S128.63,0,90.66,0h0Z"/>
      <path class="cls-1" d="M63.23,95.27C52.97,90.38-1.85,65.57.05,54.71c1.48-5.37,13.39-4.12,17.8-4.08.43.02.41.67-.01.68-1.94.03-3.88.06-5.81.21-2.61.27-12.17.76-9.82,5.04,2.52,3.87,6.85,6.24,10.77,8.75,9.97,5.89,20.58,10.68,31.2,15.31,7.12,3.06,14.32,6.02,21.52,8.78,3.96,1.66,1.57,7.53-2.46,5.86h0Z"/>
      <path class="cls-1" d="M76.74,88.85l1.42-.25,2.11,1.96.97-.07.84,1.8,3.95,3.8,4.67-7.5.11.06.1-.14,4.25,1.54,1.8,9.56,2.81,2.28s8.12,2.86,8.25,3.29l-1.03,1.31h-.17l.64.27.4.37s7.8,4.18,9.71,6.22l1.86.88-1.95-.72s-5.62-.24-13.93-3.31l-3.93.33-.89-.18s-5.67-1.76-8.41-3.18l-12.57,4.43s-.59.09-.77-.02l-3.8-1.34v-.31l6.65-6.47-.81-.44-9.37,1.63-.75-1.32,5.53-2.98-1.84-1.16s-.99-.5.39-2.55l-.92-1.97,1.25-.07,1.03.77s.57-1.62,1.27-1.45l2.46.5-1.33-5.57Z"/>
    </g>
  </g>
</svg>